<svg width="1920" height="1080" viewBox="0 0 1920 1080" fill="none" xmlns="http://www.w3.org/2000/svg">
<g filter="url(#filter0_d)">
<path fill-rule="evenodd" clip-rule="evenodd" d="M1701.09 -56.2111C1784.63 -76.028 1878.69 -43.1417 1942.16 14.595C2003.1 70.0394 2010.31 159.531 2026.88 240.17C2041.54 311.529 2054.01 383.745 2032.29 453.288C2010.39 523.411 1970.38 591.891 1905.95 627.358C1844.61 661.131 1771 631.023 1701.09 635.615C1623.93 640.683 1537.25 702.32 1475.66 655.62C1413.82 608.724 1457.46 506.404 1433.47 432.665C1409.49 358.943 1313.85 301.719 1336.42 227.554C1358.9 153.674 1470.01 159.597 1531.01 112.131C1595.55 61.9047 1621.47 -37.3232 1701.09 -56.2111Z" fill="url(#paint0_linear)"/>
</g>
<g filter="url(#filter1_d)">
<path fill-rule="evenodd" clip-rule="evenodd" d="M-190.372 1090.82C-189.13 977.75 -57.1459 922.63 -2.1541 825.654C39.3984 752.377 32.6883 656.524 90.2622 595.929C156.766 525.935 243.83 453.416 339.102 466.489C433.96 479.506 474.26 597.672 549.879 658.998C627.317 721.799 747.181 736.198 786.263 829.13C826.224 924.15 802.882 1042.73 746.632 1126.85C694.621 1204.63 590.787 1213.8 505.477 1249.03C438.676 1276.61 373.343 1293.33 303.061 1310.02C197.648 1335.05 92.1553 1415.53 -8.14082 1370.98C-110.733 1325.4 -191.626 1205.1 -190.372 1090.82Z" fill="url(#paint1_linear)"/>
</g>
<g filter="url(#filter2_d)">
<path fill-rule="evenodd" clip-rule="evenodd" d="M22.2967 455.052C73.4363 455.928 122.978 467.43 166.944 493.565C214.487 521.827 257.172 558.644 280.74 608.681C306.502 663.379 321.857 726.418 303.794 784.118C285.646 842.09 236.478 884.458 184.544 915.968C135.8 945.542 79.2824 953.127 22.2967 954.91C-36.5074 956.75 -102.556 964.324 -147.499 926.358C-191.823 888.914 -182.933 820.335 -201.913 765.504C-221.434 709.116 -275.948 658.423 -260.173 600.874C-244.366 543.209 -179.126 515.976 -125.996 488.547C-79.8362 464.718 -29.6429 454.162 22.2967 455.052Z" fill="url(#paint2_linear)"/>
</g>
<g filter="url(#filter3_d)">
<path fill-rule="evenodd" clip-rule="evenodd" d="M1938.83 303.027C1982.66 304.158 2015.33 340.647 2049.19 368.507C2080.86 394.571 2118.87 418.929 2128.22 458.871C2137.35 497.851 2108.94 533.594 2096.77 571.731C2084.51 610.141 2088.77 658.227 2056.76 682.739C2024.65 707.325 1978.89 698.2 1938.83 692.671C1903.55 687.802 1870.5 675.013 1842.39 653.15C1815.02 631.867 1799.24 601.59 1782.6 571.173C1761.7 532.952 1724.72 496.336 1733.26 453.616C1741.87 410.517 1788.8 388.679 1824.25 362.707C1859.86 336.621 1894.7 301.889 1938.83 303.027Z" fill="url(#paint3_linear)"/>
</g>
<defs>
<filter id="filter0_d" x="1309" y="-70" width="743" height="767" filterUnits="userSpaceOnUse" color-interpolation-filters="sRGB">
<feFlood flood-opacity="0" result="BackgroundImageFix"/>
<feColorMatrix in="SourceAlpha" type="matrix" values="0 0 0 0 0 0 0 0 0 0 0 0 0 0 0 0 0 0 127 0" result="hardAlpha"/>
<feOffset dx="-8" dy="8"/>
<feGaussianBlur stdDeviation="8"/>
<feColorMatrix type="matrix" values="0 0 0 0 0.454167 0 0 0 0 0.450382 0 0 0 0 0.450382 0 0 0 0.1 0"/>
<feBlend mode="normal" in2="BackgroundImageFix" result="effect1_dropShadow"/>
<feBlend mode="normal" in="SourceGraphic" in2="effect1_dropShadow" result="shape"/>
</filter>
<filter id="filter1_d" x="-331.572" y="357.522" width="1235.71" height="1102" filterUnits="userSpaceOnUse" color-interpolation-filters="sRGB">
<feFlood flood-opacity="0" result="BackgroundImageFix"/>
<feColorMatrix in="SourceAlpha" type="matrix" values="0 0 0 0 0 0 0 0 0 0 0 0 0 0 0 0 0 0 127 0" result="hardAlpha"/>
<feOffset dx="8" dy="8"/>
<feGaussianBlur stdDeviation="8"/>
<feColorMatrix type="matrix" values="0 0 0 0 0.454167 0 0 0 0 0.450382 0 0 0 0 0.450382 0 0 0 0.1 0"/>
<feBlend mode="normal" in2="BackgroundImageFix" result="effect1_dropShadow"/>
<feBlend mode="normal" in="SourceGraphic" in2="effect1_dropShadow" result="shape"/>
</filter>
<filter id="filter2_d" x="-271" y="447" width="606.649" height="533.762" filterUnits="userSpaceOnUse" color-interpolation-filters="sRGB">
<feFlood flood-opacity="0" result="BackgroundImageFix"/>
<feColorMatrix in="SourceAlpha" type="matrix" values="0 0 0 0 0 0 0 0 0 0 0 0 0 0 0 0 0 0 127 0" result="hardAlpha"/>
<feOffset dx="8" dy="8"/>
<feGaussianBlur stdDeviation="8"/>
<feColorMatrix type="matrix" values="0 0 0 0 0.454167 0 0 0 0 0.450382 0 0 0 0 0.450382 0 0 0 0.1 0"/>
<feBlend mode="normal" in2="BackgroundImageFix" result="effect1_dropShadow"/>
<feBlend mode="normal" in="SourceGraphic" in2="effect1_dropShadow" result="shape"/>
</filter>
<filter id="filter3_d" x="1708" y="295" width="430" height="428" filterUnits="userSpaceOnUse" color-interpolation-filters="sRGB">
<feFlood flood-opacity="0" result="BackgroundImageFix"/>
<feColorMatrix in="SourceAlpha" type="matrix" values="0 0 0 0 0 0 0 0 0 0 0 0 0 0 0 0 0 0 127 0" result="hardAlpha"/>
<feOffset dx="-8" dy="8"/>
<feGaussianBlur stdDeviation="8"/>
<feColorMatrix type="matrix" values="0 0 0 0 0.454167 0 0 0 0 0.450382 0 0 0 0 0.450382 0 0 0 0.1 0"/>
<feBlend mode="normal" in2="BackgroundImageFix" result="effect1_dropShadow"/>
<feBlend mode="normal" in="SourceGraphic" in2="effect1_dropShadow" result="shape"/>
</filter>
<linearGradient id="paint0_linear" x1="1333" y1="305.5" x2="2044" y2="305.5" gradientUnits="userSpaceOnUse">
<stop stop-color="#89F7FE"/>
<stop offset="1" stop-color="#66A6FF"/>
</linearGradient>
<linearGradient id="paint1_linear" x1="386.17" y1="1303.17" x2="170.394" y2="497.879" gradientUnits="userSpaceOnUse">
<stop stop-color="#00CDAC"/>
<stop offset="1" stop-color="#8DDAD5"/>
</linearGradient>
<linearGradient id="paint2_linear" x1="-263" y1="705.881" x2="311.649" y2="705.881" gradientUnits="userSpaceOnUse">
<stop stop-color="#4FACFE"/>
<stop offset="1" stop-color="#00F2FE"/>
</linearGradient>
<linearGradient id="paint3_linear" x1="1732" y1="501" x2="2130" y2="501" gradientUnits="userSpaceOnUse">
<stop stop-color="#84FAB0"/>
<stop offset="1" stop-color="#8FD3F4"/>
</linearGradient>
</defs>
</svg>
