<svg width="552" height="625" viewBox="0 0 552 625" fill="none" xmlns="http://www.w3.org/2000/svg">
<path d="M275.928 79.4802V11.3543H264.573V0H287.284V79.4802H275.928Z" fill="#F6F7F8"/>
<path d="M194.733 147.606C194.782 144.61 195.994 141.75 198.113 139.631C200.232 137.512 203.093 136.301 206.089 136.252H227.784C230.78 136.301 233.641 137.512 235.76 139.631C237.879 141.75 239.091 144.61 239.14 147.606V204.378C239.091 207.374 237.879 210.234 235.76 212.352C233.641 214.471 230.78 215.683 227.784 215.732H206.089C203.087 215.701 200.216 214.495 198.093 212.372C195.97 210.25 194.764 207.379 194.733 204.378V147.606ZM227.855 204.378V147.606H206.16V204.378H227.855Z" fill="#F6F7F8"/>
<path d="M266.773 147.606C266.821 144.61 268.033 141.75 270.153 139.631C272.272 137.512 275.132 136.301 278.129 136.252H299.894C302.891 136.301 305.751 137.512 307.87 139.631C309.99 141.75 311.202 144.61 311.25 147.606V204.378C311.202 207.374 309.99 210.234 307.87 212.352C305.751 214.471 302.891 215.683 299.894 215.732H278.2C275.197 215.701 272.327 214.495 270.204 212.372C268.081 210.25 266.874 207.379 266.843 204.378L266.773 147.606ZM299.894 204.378V147.606H278.2V204.378H299.894Z" fill="#F6F7F8"/>
<path d="M348.039 215.732V147.606H336.683V136.252H359.395V215.732H348.039Z" fill="#F6F7F8"/>
<path d="M143.749 351.984V283.858H132.393V272.504H155.105V351.984H143.749Z" fill="#F6F7F8"/>
<path d="M182.738 283.858C182.787 280.862 183.999 278.002 186.118 275.883C188.237 273.764 191.098 272.552 194.094 272.504H215.789C218.786 272.552 221.646 273.764 223.765 275.883C225.884 278.002 227.096 280.862 227.145 283.858V340.629C227.102 343.627 225.892 346.491 223.772 348.611C221.651 350.731 218.788 351.941 215.789 351.984H194.094C191.092 351.953 188.221 350.747 186.098 348.624C183.975 346.501 182.769 343.631 182.738 340.629V283.858ZM215.86 340.629V283.858H194.165V340.629H215.86Z" fill="#F6F7F8"/>
<path d="M254.944 283.858C254.992 280.862 256.204 278.002 258.324 275.883C260.443 273.764 263.303 272.552 266.3 272.504H287.994C290.991 272.552 293.851 273.764 295.97 275.883C298.089 278.002 299.301 280.862 299.35 283.858V340.629C299.307 343.627 298.097 346.491 295.977 348.611C293.856 350.731 290.993 351.941 287.994 351.984H266.3C263.297 351.953 260.427 350.747 258.304 348.624C256.181 346.501 254.974 343.631 254.944 340.629V283.858ZM288.065 340.629V283.858H266.371V340.629H288.065Z" fill="#F6F7F8"/>
<path d="M336.044 351.984V283.858H324.688V272.504H347.4V351.984H336.044Z" fill="#F6F7F8"/>
<path d="M375.104 283.858C375.159 280.86 376.376 278 378.499 275.881C380.622 273.763 383.485 272.552 386.484 272.504H408.155C411.152 272.552 414.012 273.764 416.131 275.883C418.25 278.002 419.462 280.862 419.511 283.858V340.629C419.468 343.627 418.258 346.491 416.138 348.611C414.017 350.731 411.154 351.941 408.155 351.984H386.484C383.478 351.959 380.601 350.756 378.473 348.632C376.345 346.509 375.135 343.635 375.104 340.629V283.858ZM408.226 340.629V283.858H386.484V340.629H408.226Z" fill="#F6F7F8"/>
<path d="M86.4489 420.11C86.4976 417.113 87.7097 414.254 89.8289 412.135C91.9481 410.016 94.8082 408.804 97.8048 408.755H119.5C122.496 408.804 125.356 410.016 127.476 412.135C129.595 414.254 130.807 417.113 130.856 420.11V476.881C130.807 479.877 129.595 482.737 127.476 484.856C125.356 486.975 122.496 488.187 119.5 488.235H97.8048C94.8026 488.205 91.932 486.999 89.809 484.876C87.686 482.753 86.4796 479.883 86.4489 476.881V420.11ZM119.571 476.881V420.11H97.8758V476.881H119.571Z" fill="#F6F7F8"/>
<path d="M158.56 420.11C158.608 417.113 159.82 414.254 161.939 412.135C164.059 410.016 166.919 408.804 169.915 408.755H191.61C194.607 408.804 197.467 410.016 199.586 412.135C201.705 414.254 202.917 417.113 202.966 420.11V476.881C202.917 479.877 201.705 482.737 199.586 484.856C197.467 486.975 194.607 488.187 191.61 488.235H169.915C166.913 488.205 164.043 486.999 161.92 484.876C159.797 482.753 158.59 479.883 158.56 476.881V420.11ZM191.681 476.881V420.11H169.986V476.881H191.681Z" fill="#F6F7F8"/>
<path d="M230.67 420.11C230.719 417.113 231.931 414.254 234.05 412.135C236.169 410.016 239.03 408.804 242.026 408.755H263.721C266.717 408.804 269.578 410.016 271.697 412.135C273.816 414.254 275.028 417.113 275.077 420.11V476.881C275.028 479.877 273.816 482.737 271.697 484.856C269.578 486.975 266.717 488.187 263.721 488.235H242.026C239.024 488.205 236.153 486.999 234.03 484.876C231.907 482.753 230.701 479.883 230.67 476.881V420.11ZM263.792 476.881V420.11H242.097V476.881H263.792Z" fill="#F6F7F8"/>
<path d="M311.865 488.235V420.11H300.51V408.755H323.221V488.235H311.865Z" fill="#F6F7F8"/>
<path d="M360.01 488.235V420.11H348.654V408.755H371.366V488.235H360.01Z" fill="#F6F7F8"/>
<path d="M408.155 488.235V420.11H396.894V408.755H419.606V488.235H408.155Z" fill="#F6F7F8"/>
<path d="M456.323 488.235V420.11H444.944V408.755H467.68V488.235H456.323Z" fill="#F6F7F8"/>
<path d="M11.4517 624.487V556.361H0.0957031V545.007H22.8077V624.487H11.4517Z" fill="#F6F7F8"/>
<path d="M50.5118 556.361C50.5605 553.365 51.7726 550.505 53.8918 548.387C56.011 546.268 58.8713 545.056 61.8679 545.007H83.5626C86.5592 545.056 89.4194 546.268 91.5386 548.387C93.6578 550.505 94.8698 553.365 94.9186 556.361V613.133C94.8698 616.129 93.6578 618.989 91.5386 621.108C89.4194 623.227 86.5592 624.438 83.5626 624.487H61.8679C58.8656 624.456 55.995 623.25 53.872 621.128C51.7489 619.005 50.5426 616.135 50.5118 613.133V556.361ZM83.6335 613.133V556.361H61.9388V613.133H83.6335Z" fill="#F6F7F8"/>
<path d="M131.707 624.487V556.361H120.351V545.007H143.063V624.487H131.707Z" fill="#F6F7F8"/>
<path d="M170.767 556.361C170.816 553.365 172.028 550.505 174.147 548.387C176.266 546.268 179.126 545.056 182.123 545.007H203.818C206.814 545.056 209.675 546.268 211.794 548.387C213.913 550.505 215.125 553.365 215.174 556.361V613.133C215.125 616.129 213.913 618.989 211.794 621.108C209.675 623.227 206.814 624.438 203.818 624.487H182.123C179.121 624.456 176.25 623.25 174.127 621.128C172.004 619.005 170.798 616.135 170.767 613.133V556.361ZM203.889 613.133V556.361H182.194V613.133H203.889Z" fill="#F6F7F8"/>
<path d="M242.878 556.361C242.926 553.365 244.139 550.505 246.258 548.387C248.377 546.268 251.237 545.056 254.234 545.007H275.928C278.925 545.056 281.785 546.268 283.904 548.387C286.023 550.505 287.235 553.365 287.284 556.361V613.133C287.235 616.129 286.023 618.989 283.904 621.108C281.785 623.227 278.925 624.438 275.928 624.487H254.234C251.231 624.456 248.361 623.25 246.238 621.128C244.115 619.005 242.909 616.135 242.878 613.133V556.361ZM275.999 613.133V556.361H254.234V613.133H275.999Z" fill="#F6F7F8"/>
<path d="M314.988 556.361C315.037 553.365 316.249 550.505 318.368 548.387C320.488 546.268 323.348 545.056 326.344 545.007H348.039C351.036 545.056 353.896 546.268 356.015 548.387C358.134 550.505 359.346 553.365 359.395 556.361V613.133C359.346 616.129 358.134 618.989 356.015 621.108C353.896 623.227 351.036 624.438 348.039 624.487H326.344C323.342 624.456 320.471 623.25 318.348 621.128C316.225 619.005 315.019 616.135 314.988 613.133V556.361ZM348.11 613.133V556.361H326.415V613.133H348.11Z" fill="#F6F7F8"/>
<path d="M387.099 556.361C387.148 553.365 388.36 550.505 390.479 548.387C392.598 546.268 395.458 545.056 398.455 545.007H420.15C423.146 545.056 426.006 546.268 428.126 548.387C430.245 550.505 431.457 553.365 431.506 556.361V613.133C431.457 616.129 430.245 618.989 428.126 621.108C426.006 623.227 423.146 624.438 420.15 624.487H398.455C395.453 624.456 392.582 623.25 390.459 621.128C388.336 619.005 387.13 616.135 387.099 613.133V556.361ZM420.221 613.133V556.361H398.526V613.133H420.221Z" fill="#F6F7F8"/>
<path d="M468.295 624.487V556.361H456.939V545.007H479.698V624.487H468.295Z" fill="#F6F7F8"/>
<path d="M507.355 556.361C507.403 553.365 508.615 550.505 510.735 548.387C512.854 546.268 515.714 545.056 518.711 545.007H540.405C543.402 545.056 546.262 546.268 548.381 548.387C550.5 550.505 551.713 553.365 551.761 556.361V613.133C551.713 616.129 550.5 618.989 548.381 621.108C546.262 623.227 543.402 624.438 540.405 624.487H518.711C515.708 624.456 512.838 623.25 510.715 621.128C508.592 619.005 507.385 616.135 507.355 613.133V556.361ZM540.476 613.133V556.361H518.782V613.133H540.476Z" fill="#F6F7F8"/>
</svg>
