<svg width="280" height="32" viewBox="0 0 280 32" fill="none" xmlns="http://www.w3.org/2000/svg">
<path d="M26.7857 3.70492H0V6.60696H26.7857V3.70492Z" fill="black"/>
<path d="M6.78571 7.33251H0V10.2346H6.78571V7.33251Z" fill="black"/>
<path d="M6.78571 10.9601H0V13.8622H6.78571V10.9601Z" fill="black"/>
<path d="M6.78571 14.5877H0V17.4897H6.78571V14.5877Z" fill="black"/>
<path d="M6.78571 18.2152H0V21.1173H6.78571V18.2152Z" fill="black"/>
<path d="M6.78571 21.8428H0V24.7449H6.78571V21.8428Z" fill="black"/>
<path d="M26.7856 10.9601H11.0713V13.8622H26.7856V10.9601Z" fill="black"/>
<path d="M26.7856 14.5877H11.0713V17.4897H26.7856V14.5877Z" fill="black"/>
<path d="M26.7857 18.2152H20V21.1173H26.7857V18.2152Z" fill="black"/>
<path d="M26.7857 21.8428H20V24.7449H26.7857V21.8428Z" fill="black"/>
<path d="M26.7857 25.4704H0V28.3724H26.7857V25.4704Z" fill="black"/>
<path d="M26.7857 0.0769272H0V2.97895H26.7857V0.0769272Z" fill="black"/>
<path d="M26.7857 29.098H0V32H26.7857V29.098Z" fill="black"/>
<path d="M59.6429 3.70492H35V6.60696H59.6429V3.70492Z" fill="black"/>
<path d="M41.7857 7.33251H35V10.2346H41.7857V7.33251Z" fill="black"/>
<path d="M59.6429 10.9601H35V13.8622H59.6429V10.9601Z" fill="black"/>
<path d="M59.6429 14.5877H35V17.4897H59.6429V14.5877Z" fill="black"/>
<path d="M41.7857 18.2152H35V21.1173H41.7857V18.2152Z" fill="black"/>
<path d="M41.7857 21.8428H35V24.7449H41.7857V21.8428Z" fill="black"/>
<path d="M59.6429 25.4704H35V28.3724H59.6429V25.4704Z" fill="black"/>
<path d="M59.6429 0.0769272H35V2.97895H59.6429V0.0769272Z" fill="black"/>
<path d="M59.6429 29.098H35V32H59.6429V29.098Z" fill="black"/>
<path d="M70.3569 3.70492H78.9283L80.7141 6.60696H72.4998L70.3569 3.70492Z" fill="black"/>
<path d="M73.2144 7.33251H81.4286L83.5715 10.2346H75.0001L73.2144 7.33251Z" fill="black"/>
<path d="M90.7141 0.0769272H98.9284L97.1427 2.97895H88.5713L90.7141 0.0769272Z" fill="black"/>
<path d="M88.2141 3.70492H96.4284L94.6427 6.60696H86.0713L88.2141 3.70492Z" fill="black"/>
<path d="M85.357 7.33251H93.9284L91.7856 10.2346H83.5713L85.357 7.33251Z" fill="black"/>
<path d="M75.3574 10.9601H91.4289L89.286 13.8622H77.5003L75.3574 10.9601Z" fill="black"/>
<path d="M78.2139 14.5877H88.571L87.8567 16.0387V16.4015L88.571 17.4897H78.2139L78.9282 16.0387L78.2139 14.5877Z" fill="black"/>
<path d="M77.5003 18.2152H89.286L91.4289 21.1173H75.3574L77.5003 18.2152Z" fill="black"/>
<path d="M74.9998 21.8428H83.2141L81.4283 24.7449H72.8569L74.9998 21.8428Z" fill="black"/>
<path d="M83.5713 21.8428L85.357 24.7449H93.9284L92.1427 21.8428H83.5713Z" fill="black"/>
<path d="M72.1426 25.4704H81.0712L78.9283 28.3724H70.3569L72.1426 25.4704Z" fill="black"/>
<path d="M86.0713 25.4704H94.6427L96.7856 28.3724H87.857L86.0713 25.4704Z" fill="black"/>
<path d="M69.6426 29.098H78.2141L76.4284 32H67.8569L69.6426 29.098Z" fill="black"/>
<path d="M88.5713 29.098H97.1427L99.2856 32H90.357L88.5713 29.098Z" fill="black"/>
<path d="M67.8569 0.0769272H76.4284L78.2141 2.97895H69.6426L67.8569 0.0769272Z" fill="black"/>
<path d="M118.214 0.0769272H126.785L127.857 2.97895H117.143L118.214 0.0769272Z" fill="black"/>
<path d="M116.785 3.70492H128.214L129.285 6.60696H115.714L116.785 3.70492Z" fill="black"/>
<path d="M115.358 7.33251H129.643L130.715 10.2346H114.286L115.358 7.33251Z" fill="black"/>
<path d="M113.929 10.9601H121.786L120.715 13.8622H112.857L113.929 10.9601Z" fill="black"/>
<path d="M123.214 10.9601H131.071L132.143 13.8622H124.286L123.214 10.9601Z" fill="black"/>
<path d="M112.5 14.5877H120.357L118.929 17.4897H111.429L112.5 14.5877Z" fill="black"/>
<path d="M124.643 14.5877H132.5L133.572 17.4897H126.072L124.643 14.5877Z" fill="black"/>
<path d="M111.071 18.2152H133.929L135 21.1173H110L111.071 18.2152Z" fill="black"/>
<path d="M109.643 21.8428H135.357L136.429 24.7449H108.572L109.643 21.8428Z" fill="black"/>
<path d="M108.214 25.4704H115.715L114.643 28.3724H107.143L108.214 25.4704Z" fill="black"/>
<path d="M106.786 29.098H114.286L113.214 32H105.714L106.786 29.098Z" fill="black"/>
<path d="M129.286 25.4704H136.786L137.858 28.3724H130.358L129.286 25.4704Z" fill="black"/>
<path d="M130.715 29.098H138.215L139.286 32H131.786L130.715 29.098Z" fill="black"/>
<path d="M172.857 0.0769272H146.072V2.97895H172.857V0.0769272Z" fill="black"/>
<path d="M172.857 3.70492H146.072V6.60696H172.857V3.70492Z" fill="black"/>
<path d="M172.857 29.098H146.072V32H172.857V29.098Z" fill="black"/>
<path d="M152.857 7.33251H146.072V10.2346H152.857V7.33251Z" fill="black"/>
<path d="M172.858 7.33251H166.072V10.2346H172.858V7.33251Z" fill="black"/>
<path d="M170.686 13.8622H146.072V10.9601H172.857C172.857 12.7739 172.5 13.8622 170.686 13.8622Z" fill="black"/>
<path d="M170.686 14.5877H146.072V17.4897H172.857C172.857 15.6759 172.5 14.5877 170.686 14.5877Z" fill="black"/>
<path d="M152.857 18.2152H146.072V21.1173H152.857V18.2152Z" fill="black"/>
<path d="M172.858 18.2152H166.072V21.1173H172.858V18.2152Z" fill="black"/>
<path d="M152.857 21.8428H146.072V24.7449H152.857V21.8428Z" fill="black"/>
<path d="M172.858 21.8428H166.072V24.7449H172.858V21.8428Z" fill="black"/>
<path d="M172.857 25.4704H146.072V28.3724H172.857V25.4704Z" fill="black"/>
<path d="M181.072 0.0769272H189.643L191.429 2.97895H182.857L181.072 0.0769272Z" fill="black"/>
<path d="M183.572 3.70492H192.143L194.286 6.60696H185.357L183.572 3.70492Z" fill="black"/>
<path d="M186.072 7.33251H195L196.786 10.2346H188.215L186.072 7.33251Z" fill="black"/>
<path d="M203.572 0.0769272H212.143L210.358 2.97895H201.786L203.572 0.0769272Z" fill="black"/>
<path d="M201.429 3.70492H209.643H210L207.858 6.60696H199.286L201.429 3.70492Z" fill="black"/>
<path d="M198.572 7.33251H207.143L205 10.2346H196.786L198.572 7.33251Z" fill="black"/>
<path d="M188.929 10.9601H204.286L202.501 13.8622H190.715L188.929 10.9601Z" fill="black"/>
<path d="M191.429 14.5877H202.143L200.357 17.4897H192.857L191.429 14.5877Z" fill="black"/>
<path d="M200 18.2152H193.214V21.1173H200V18.2152Z" fill="black"/>
<path d="M200 21.8428H193.214V24.7449H200V21.8428Z" fill="black"/>
<path d="M200 25.4704H193.214V28.3724H200V25.4704Z" fill="black"/>
<path d="M200 29.098H193.214V32H200V29.098Z" fill="black"/>
<path d="M247.143 0.0769272H220.357V2.97895H247.143V0.0769272Z" fill="black"/>
<path d="M247.143 3.70492H220.357V6.60696H247.143V3.70492Z" fill="black"/>
<path d="M237.5 7.33251H230.714V10.2346H237.5V7.33251Z" fill="black"/>
<path d="M237.5 10.9601H230.714V13.8622H237.5V10.9601Z" fill="black"/>
<path d="M237.5 14.5877H230.714V17.4897H237.5V14.5877Z" fill="black"/>
<path d="M237.5 18.2152H230.714V21.1173H237.5V18.2152Z" fill="black"/>
<path d="M237.5 21.8428H230.714V24.7449H237.5V21.8428Z" fill="black"/>
<path d="M237.5 25.4704H230.714V28.3724H237.5V25.4704Z" fill="black"/>
<path d="M237.5 29.098H230.714V32H237.5V29.098Z" fill="black"/>
<path d="M280 3.70492H255.357V6.60696H280V3.70492Z" fill="black"/>
<path d="M262.143 7.33251H255.357V10.2346H262.143V7.33251Z" fill="black"/>
<path d="M280 10.9601H255.357V13.8622H280V10.9601Z" fill="black"/>
<path d="M280 14.5877H255.357V17.4897H280V14.5877Z" fill="black"/>
<path d="M262.143 18.2152H255.357V21.1173H262.143V18.2152Z" fill="black"/>
<path d="M262.143 21.8428H255.357V24.7449H262.143V21.8428Z" fill="black"/>
<path d="M280 25.4704H255.357V28.3724H280V25.4704Z" fill="black"/>
<path d="M280 0.0769272H255.357V2.97895H280V0.0769272Z" fill="black"/>
<path d="M280 29.098H255.357V32H280V29.098Z" fill="black"/>
</svg>
