<svg width="200" height="56" viewBox="0 0 200 56" fill="none" xmlns="http://www.w3.org/2000/svg">
<g clip-path="url(#clip0)">
<path fill-rule="evenodd" clip-rule="evenodd" d="M24.0077 35.6821C26.1407 37.3369 29.754 37.3369 31.887 35.6821C33.7012 34.2811 35.7839 37.1054 33.9697 38.5063C33.7626 38.6668 33.5458 38.8188 33.3224 38.9613C30.8116 40.5547 27.5364 40.8672 24.7381 39.9672C23.9422 39.7119 23.1913 39.3617 22.5166 38.9263C22.3135 38.7938 22.1157 38.6542 21.9263 38.5063C20.1108 37.1054 22.1935 34.2811 24.0077 35.6821ZM11.3536 5.14318C11.6589 5.34272 11.9806 5.56038 12.3145 5.79063C9.60352 8.28553 7.41865 11.333 5.8553 14.7014C4.52637 13.0535 3.76174 11.3372 3.53138 9.70601C2.89215 5.18504 6.13606 1.73291 11.3536 5.14318ZM37.9007 16.6842C39.0783 15.4786 39.0783 13.4986 37.9007 12.2944C36.7243 11.0888 34.7903 11.0888 33.6127 12.2944C32.4364 13.4986 32.4364 15.4786 33.6127 16.6842C34.7903 17.8899 36.7243 17.8899 37.9007 16.6842ZM42.7284 2.16687C42.1545 2.54222 41.5615 2.94408 40.9578 3.36548C39.0224 2.05663 36.8769 0.983594 34.5313 0.210563C32.9311 -0.31828 31.466 0.249634 30.0267 0.807779C28.2015 1.51523 28.1347 1.51523 26.3084 0.807779C24.8691 0.249634 23.4038 -0.31828 21.8036 0.210563C19.3762 1.01011 17.1627 2.13197 15.1741 3.50502C14.5021 3.0306 13.8424 2.58268 13.2059 2.16687C2.52005 -4.81833 -5.30898 8.50181 4.44459 18.3489C3.38145 21.7451 2.92622 25.3104 3.13203 28.8029C3.81762 40.4752 16.2563 56 28.1675 56C40.08 56 52.5186 40.4752 53.2043 28.8029C53.4142 25.203 52.9263 21.5248 51.7896 18.0364C61.0769 8.22274 53.3024 -4.74437 42.7284 2.16687ZM43.8474 5.63295C44.0927 5.46551 44.338 5.30226 44.5807 5.14318C49.7981 1.73291 53.0421 5.18504 52.4029 9.70601C52.1862 11.2325 51.5046 12.833 50.3297 14.3819C48.7446 11.0693 46.5501 8.07763 43.8474 5.63295ZM40.2682 19.1079C39.5212 19.8741 38.5889 20.4489 37.5463 20.7601C38.3137 24.2191 38.7007 27.7426 38.7171 31.2895C38.7212 32.3276 38.3586 33.144 37.7848 33.7412C37.294 34.2505 36.6672 34.5686 35.9952 34.7067C35.3954 34.8309 34.7562 34.8085 34.1605 34.6495C33.2024 34.3941 32.3178 33.7831 31.8149 32.851C31.5068 32.2815 30.9357 31.5016 30.073 30.9183C29.506 30.5359 28.8012 30.2374 27.948 30.1439C27.0935 30.2374 26.3887 30.5359 25.8217 30.9183C24.959 31.5016 24.3879 32.2815 24.0798 32.851C23.5769 33.7831 22.6923 34.3941 21.7342 34.6495C21.1385 34.8085 20.4993 34.8309 19.8983 34.7067C19.2277 34.5686 18.6007 34.2505 18.1099 33.7412C17.5361 33.144 17.1735 32.3276 17.1776 31.2895C17.1995 26.456 17.941 21.3559 19.4144 16.7582C19.225 16.8182 19.0244 16.8503 18.8174 16.8503C17.6942 16.8503 16.7838 15.9182 16.7838 14.7684C16.7838 13.62 17.6942 12.6879 18.8174 12.6879C19.6147 12.6879 20.3044 13.1595 20.6369 13.8447C20.8156 13.5321 21.0022 13.2377 21.2026 12.96C19.6897 11.4935 17.4121 9.59299 15.204 7.90321C9.37044 12.9181 6.12379 20.8187 6.58041 28.595C7.02883 36.2318 12.7534 44.3669 18.767 48.7832C16.4962 46.1041 14.7474 43.0176 13.304 39.7091C12.9156 38.8175 13.3054 37.7738 14.175 37.3761C15.0459 36.9784 16.0655 37.3775 16.4539 38.2692C19.0164 44.1408 22.5043 49.0413 28.2821 51.9033C34.0597 49.0413 37.5475 44.1408 40.1101 38.2692C40.4985 37.3775 41.5193 36.9784 42.3889 37.3761C43.2585 37.7738 43.6497 38.8175 43.2612 39.7091C41.901 42.8278 40.2682 45.7497 38.1841 48.3172C43.9074 43.863 49.3198 36.0183 49.7545 28.595C50.2166 20.7337 46.8937 12.7479 40.9414 7.74134C40.3785 8.17112 39.821 8.60507 39.2745 9.03763C39.633 9.28183 39.9655 9.5609 40.2682 9.87066C41.4239 11.0525 42.1381 12.6865 42.1381 14.4893C42.1381 16.2935 41.4239 17.9261 40.2682 19.1079ZM34.0024 20.7699C33.4082 20.5968 32.8521 20.3387 32.3424 20.0079C32.4132 20.9401 31.7031 22.1597 29.7227 23.6709C29.7077 23.6821 29.6926 23.6945 29.679 23.7057V26.8928C30.5432 27.1425 31.3051 27.5235 31.9662 27.9699C33.4014 28.9383 34.3405 30.2192 34.8434 31.1486C35.0506 31.4345 35.2822 31.1946 35.2632 30.7732C35.101 27.2806 34.808 24.1731 34.0024 20.7699ZM30.4682 18.1424C26.8181 16.874 19.6774 18.7173 26.1721 23.6709C26.1834 23.6793 26.1949 23.6887 26.2063 23.6975C26.2099 23.7003 26.2135 23.703 26.2171 23.7057V26.8928C25.3516 27.1425 24.5896 27.5235 23.9285 27.9699C22.4933 28.9383 21.6101 30.1593 21.1085 31.09C20.8427 31.4373 20.6315 31.2322 20.6342 30.6644C20.6547 26.7447 21.7014 19.1889 23.5511 15.7577C23.9368 15.0419 24.2434 14.714 24.8009 14.16C25.4538 13.5098 25.6337 12.4619 24.8745 11.6609C23.0195 9.71439 20.6246 7.6311 18.1836 5.7348C19.6215 4.85712 21.1822 4.12736 22.8586 3.57478C23.3084 3.42549 24.208 3.77433 25.0926 4.11758C27.7545 5.14876 28.5805 5.14876 31.2438 4.11758C32.127 3.77433 33.0279 3.42549 33.4764 3.57478C35.0656 4.09805 36.5499 4.78177 37.9265 5.59806C36.9193 6.37529 35.9188 7.18739 34.958 8.00786C33.5159 8.19345 32.2224 8.87019 31.2465 9.87066C30.092 11.0525 29.3778 12.6865 29.3778 14.4893C29.3778 15.8428 29.7798 17.1001 30.4682 18.1424ZM105.671 15.1004C104.601 15.1004 103.732 15.9893 103.732 17.086L103.722 31.3313C103.721 32.9835 103.053 34.4932 101.979 35.5927C100.91 36.6866 99.4371 37.3662 97.8192 37.3662H97.8123V37.3746C96.1959 37.3732 94.721 36.6908 93.647 35.5927C92.5839 34.503 91.9229 32.9973 91.9229 31.3369V31.3313H91.9147L91.927 17.086C91.927 15.9893 91.0574 15.1004 89.986 15.1004C88.9161 15.1004 88.0465 15.9893 88.0465 17.086L88.0356 31.3313H88.0287V31.3369C88.0287 34.0886 89.1328 36.5918 90.9087 38.4114C92.6766 40.2197 95.1205 41.3444 97.8123 41.3458V41.3528H97.8192C100.512 41.3528 102.959 40.2267 104.732 38.4114C106.5 36.6016 107.599 34.094 107.601 31.3313L107.611 17.086C107.611 15.9893 106.743 15.1004 105.671 15.1004ZM65.9033 18.7019C66.2767 19.0841 66.7361 19.274 67.2814 19.274H73.0959V39.1132C73.0959 39.6715 73.2812 40.1431 73.6547 40.5239C74.028 40.9062 74.4875 41.0975 75.0327 41.0975C75.5791 41.0975 76.0371 40.9062 76.4106 40.5239C76.7855 40.1431 76.9708 39.6715 76.9708 39.1132V19.274H82.7839C83.3306 19.274 83.7899 19.0841 84.1621 18.7019C84.5368 18.3195 84.7222 17.8493 84.7222 17.2911C84.7222 16.7316 84.5368 16.2627 84.1621 15.8804C83.7899 15.4981 83.3306 15.3069 82.7839 15.3069H67.2814C66.7361 15.3069 66.2767 15.4981 65.9033 15.8804C65.5299 16.2627 65.3431 16.7316 65.3431 17.2911C65.3431 17.8493 65.5299 18.3195 65.9033 18.7019ZM111.238 18.7019C111.611 19.0841 112.071 19.274 112.616 19.274H118.429V39.1132C118.429 39.6715 118.616 40.1431 118.989 40.5239C119.363 40.9062 119.822 41.0975 120.367 41.0975C120.912 41.0975 121.372 40.9062 121.745 40.5239C122.119 40.1431 122.305 39.6715 122.305 39.1132V19.274H128.118C128.664 19.274 129.123 19.0841 129.496 18.7019C129.87 18.3195 130.057 17.8493 130.057 17.2911C130.057 16.7316 129.87 16.2627 129.496 15.8804C129.123 15.4981 128.664 15.3069 128.118 15.3069H112.616C112.071 15.3069 111.611 15.4981 111.238 15.8804C110.864 16.2627 110.678 16.7316 110.678 17.2911C110.678 17.8493 110.864 18.3195 111.238 18.7019ZM134.001 18.5036C131.489 21.0754 130.232 24.1981 130.232 27.8722C130.232 31.5462 131.489 34.6691 134.001 37.2407C136.513 39.8123 139.564 41.0975 143.152 41.0975C146.741 41.0975 149.791 39.8123 152.303 37.2407C154.815 34.6691 156.072 31.5462 156.072 27.8722C156.072 24.1981 154.815 21.0754 152.303 18.5036C149.791 15.9321 146.741 14.6455 143.152 14.6455C139.564 14.6455 136.513 15.9321 134.001 18.5036ZM136.757 34.4178C134.991 32.6109 134.109 30.4285 134.109 27.8722C134.109 25.3144 134.991 23.1322 136.757 21.3251C138.522 19.5167 140.654 18.6139 143.152 18.6139C145.649 18.6139 147.782 19.5167 149.548 21.3251C151.312 23.1322 152.196 25.3144 152.196 27.8722C152.196 30.4285 151.312 32.6109 149.548 34.4178C147.782 36.2262 145.649 37.1304 143.152 37.1304C140.654 37.1304 138.522 36.2262 136.757 34.4178ZM160.724 40.9495C161.799 40.9495 162.672 40.0578 162.672 38.9569V19.1483H170.341C171.853 19.1483 172.8 19.9633 173.203 21.0084C173.381 21.4702 173.47 21.9685 173.468 22.4637C173.468 22.9577 173.376 23.4572 173.198 23.9234C172.788 24.9907 171.834 25.8279 170.341 25.8279H166.792C165.718 25.8279 164.846 26.7195 164.846 27.822C164.846 28.3341 165.034 28.8001 165.345 29.1545L173.458 40.2071C174.101 41.0835 175.316 41.262 176.174 40.6035C177.031 39.9462 177.203 38.7016 176.561 37.824L170.677 29.8076C173.838 29.6819 175.892 27.78 176.819 25.3717C177.169 24.4591 177.347 23.4642 177.347 22.4637C177.349 21.466 177.176 20.4725 176.824 19.5599C175.87 17.0888 173.715 15.1618 170.341 15.1618H160.724C159.649 15.1618 158.776 16.0548 158.776 17.1544V38.9569C158.776 40.0578 159.649 40.9495 160.724 40.9495Z" fill="url(#paint0_radial)"/>
<path fill-rule="evenodd" clip-rule="evenodd" d="M24.0077 35.6821C26.1407 37.3369 29.754 37.3369 31.887 35.6821C33.7012 34.2811 35.7839 37.1054 33.9697 38.5063C33.7626 38.6668 33.5458 38.8188 33.3224 38.9613C30.8116 40.5547 27.5364 40.8672 24.7381 39.9672C23.9422 39.7119 23.1913 39.3617 22.5166 38.9263C22.3135 38.7938 22.1157 38.6542 21.9263 38.5063C20.1108 37.1054 22.1935 34.2811 24.0077 35.6821ZM11.3536 5.14318C11.6589 5.34272 11.9806 5.56038 12.3145 5.79063C9.60352 8.28553 7.41865 11.333 5.8553 14.7014C4.52637 13.0535 3.76174 11.3372 3.53138 9.70601C2.89215 5.18504 6.13606 1.73291 11.3536 5.14318ZM37.9007 16.6842C39.0783 15.4786 39.0783 13.4986 37.9007 12.2944C36.7243 11.0888 34.7903 11.0888 33.6127 12.2944C32.4364 13.4986 32.4364 15.4786 33.6127 16.6842C34.7903 17.8899 36.7243 17.8899 37.9007 16.6842ZM42.7284 2.16687C42.1545 2.54222 41.5615 2.94408 40.9578 3.36548C39.0224 2.05663 36.8769 0.983594 34.5313 0.210563C32.9311 -0.31828 31.466 0.249634 30.0267 0.807779C28.2015 1.51523 28.1347 1.51523 26.3084 0.807779C24.8691 0.249634 23.4038 -0.31828 21.8036 0.210563C19.3762 1.01011 17.1627 2.13197 15.1741 3.50502C14.5021 3.0306 13.8424 2.58268 13.2059 2.16687C2.52005 -4.81833 -5.30898 8.50181 4.44459 18.3489C3.38145 21.7451 2.92622 25.3104 3.13203 28.8029C3.81762 40.4752 16.2563 56 28.1675 56C40.08 56 52.5186 40.4752 53.2043 28.8029C53.4142 25.203 52.9263 21.5248 51.7896 18.0364C61.0769 8.22274 53.3024 -4.74437 42.7284 2.16687ZM43.8474 5.63295C44.0927 5.46551 44.338 5.30226 44.5807 5.14318C49.7981 1.73291 53.0421 5.18504 52.4029 9.70601C52.1862 11.2325 51.5046 12.833 50.3297 14.3819C48.7446 11.0693 46.5501 8.07763 43.8474 5.63295ZM40.2682 19.1079C39.5212 19.8741 38.5889 20.4489 37.5463 20.7601C38.3137 24.2191 38.7007 27.7426 38.7171 31.2895C38.7212 32.3276 38.3586 33.144 37.7848 33.7412C37.294 34.2505 36.6672 34.5686 35.9952 34.7067C35.3954 34.8309 34.7562 34.8085 34.1605 34.6495C33.2024 34.3941 32.3178 33.7831 31.8149 32.851C31.5068 32.2815 30.9357 31.5016 30.073 30.9183C29.506 30.5359 28.8012 30.2374 27.948 30.1439C27.0935 30.2374 26.3887 30.5359 25.8217 30.9183C24.959 31.5016 24.3879 32.2815 24.0798 32.851C23.5769 33.7831 22.6923 34.3941 21.7342 34.6495C21.1385 34.8085 20.4993 34.8309 19.8983 34.7067C19.2277 34.5686 18.6007 34.2505 18.1099 33.7412C17.5361 33.144 17.1735 32.3276 17.1776 31.2895C17.1995 26.456 17.941 21.3559 19.4144 16.7582C19.225 16.8182 19.0244 16.8503 18.8174 16.8503C17.6942 16.8503 16.7838 15.9182 16.7838 14.7684C16.7838 13.62 17.6942 12.6879 18.8174 12.6879C19.6147 12.6879 20.3044 13.1595 20.6369 13.8447C20.8156 13.5321 21.0022 13.2377 21.2026 12.96C19.6897 11.4935 17.4121 9.59299 15.204 7.90321C9.37044 12.9181 6.12379 20.8187 6.58041 28.595C7.02883 36.2318 12.7534 44.3669 18.767 48.7832C16.4962 46.1041 14.7474 43.0176 13.304 39.7091C12.9156 38.8175 13.3054 37.7738 14.175 37.3761C15.0459 36.9784 16.0655 37.3775 16.4539 38.2692C19.0164 44.1408 22.5043 49.0413 28.2821 51.9033C34.0597 49.0413 37.5475 44.1408 40.1101 38.2692C40.4985 37.3775 41.5193 36.9784 42.3889 37.3761C43.2585 37.7738 43.6497 38.8175 43.2612 39.7091C41.901 42.8278 40.2682 45.7497 38.1841 48.3172C43.9074 43.863 49.3198 36.0183 49.7545 28.595C50.2166 20.7337 46.8937 12.7479 40.9414 7.74134C40.3785 8.17112 39.821 8.60507 39.2745 9.03763C39.633 9.28183 39.9655 9.5609 40.2682 9.87066C41.4239 11.0525 42.1381 12.6865 42.1381 14.4893C42.1381 16.2935 41.4239 17.9261 40.2682 19.1079ZM34.0024 20.7699C33.4082 20.5968 32.8521 20.3387 32.3424 20.0079C32.4132 20.9401 31.7031 22.1597 29.7227 23.6709C29.7077 23.6821 29.6926 23.6945 29.679 23.7057V26.8928C30.5432 27.1425 31.3051 27.5235 31.9662 27.9699C33.4014 28.9383 34.3405 30.2192 34.8434 31.1486C35.0506 31.4345 35.2822 31.1946 35.2632 30.7732C35.101 27.2806 34.808 24.1731 34.0024 20.7699ZM30.4682 18.1424C26.8181 16.874 19.6774 18.7173 26.1721 23.6709C26.1834 23.6793 26.1949 23.6887 26.2063 23.6975C26.2099 23.7003 26.2135 23.703 26.2171 23.7057V26.8928C25.3516 27.1425 24.5896 27.5235 23.9285 27.9699C22.4933 28.9383 21.6101 30.1593 21.1085 31.09C20.8427 31.4373 20.6315 31.2322 20.6342 30.6644C20.6547 26.7447 21.7014 19.1889 23.5511 15.7577C23.9368 15.0419 24.2434 14.714 24.8009 14.16C25.4538 13.5098 25.6337 12.4619 24.8745 11.6609C23.0195 9.71439 20.6246 7.6311 18.1836 5.7348C19.6215 4.85712 21.1822 4.12736 22.8586 3.57478C23.3084 3.42549 24.208 3.77433 25.0926 4.11758C27.7545 5.14876 28.5805 5.14876 31.2438 4.11758C32.127 3.77433 33.0279 3.42549 33.4764 3.57478C35.0656 4.09805 36.5499 4.78177 37.9265 5.59806C36.9193 6.37529 35.9188 7.18739 34.958 8.00786C33.5159 8.19345 32.2224 8.87019 31.2465 9.87066C30.092 11.0525 29.3778 12.6865 29.3778 14.4893C29.3778 15.8428 29.7798 17.1001 30.4682 18.1424ZM105.671 15.1004C104.601 15.1004 103.732 15.9893 103.732 17.086L103.722 31.3313C103.721 32.9835 103.053 34.4932 101.979 35.5927C100.91 36.6866 99.4371 37.3662 97.8192 37.3662H97.8123V37.3746C96.1959 37.3732 94.721 36.6908 93.647 35.5927C92.5839 34.503 91.9229 32.9973 91.9229 31.3369V31.3313H91.9147L91.927 17.086C91.927 15.9893 91.0574 15.1004 89.986 15.1004C88.9161 15.1004 88.0465 15.9893 88.0465 17.086L88.0356 31.3313H88.0287V31.3369C88.0287 34.0886 89.1328 36.5918 90.9087 38.4114C92.6766 40.2197 95.1205 41.3444 97.8123 41.3458V41.3528H97.8192C100.512 41.3528 102.959 40.2267 104.732 38.4114C106.5 36.6016 107.599 34.094 107.601 31.3313L107.611 17.086C107.611 15.9893 106.743 15.1004 105.671 15.1004ZM65.9033 18.7019C66.2767 19.0841 66.7361 19.274 67.2814 19.274H73.0959V39.1132C73.0959 39.6715 73.2812 40.1431 73.6547 40.5239C74.028 40.9062 74.4875 41.0975 75.0327 41.0975C75.5791 41.0975 76.0371 40.9062 76.4106 40.5239C76.7855 40.1431 76.9708 39.6715 76.9708 39.1132V19.274H82.7839C83.3306 19.274 83.7899 19.0841 84.1621 18.7019C84.5368 18.3195 84.7222 17.8493 84.7222 17.2911C84.7222 16.7316 84.5368 16.2627 84.1621 15.8804C83.7899 15.4981 83.3306 15.3069 82.7839 15.3069H67.2814C66.7361 15.3069 66.2767 15.4981 65.9033 15.8804C65.5299 16.2627 65.3431 16.7316 65.3431 17.2911C65.3431 17.8493 65.5299 18.3195 65.9033 18.7019ZM111.238 18.7019C111.611 19.0841 112.071 19.274 112.616 19.274H118.429V39.1132C118.429 39.6715 118.616 40.1431 118.989 40.5239C119.363 40.9062 119.822 41.0975 120.367 41.0975C120.912 41.0975 121.372 40.9062 121.745 40.5239C122.119 40.1431 122.305 39.6715 122.305 39.1132V19.274H128.118C128.664 19.274 129.123 19.0841 129.496 18.7019C129.87 18.3195 130.057 17.8493 130.057 17.2911C130.057 16.7316 129.87 16.2627 129.496 15.8804C129.123 15.4981 128.664 15.3069 128.118 15.3069H112.616C112.071 15.3069 111.611 15.4981 111.238 15.8804C110.864 16.2627 110.678 16.7316 110.678 17.2911C110.678 17.8493 110.864 18.3195 111.238 18.7019ZM134.001 18.5036C131.489 21.0754 130.232 24.1981 130.232 27.8722C130.232 31.5462 131.489 34.6691 134.001 37.2407C136.513 39.8123 139.564 41.0975 143.152 41.0975C146.741 41.0975 149.791 39.8123 152.303 37.2407C154.815 34.6691 156.072 31.5462 156.072 27.8722C156.072 24.1981 154.815 21.0754 152.303 18.5036C149.791 15.9321 146.741 14.6455 143.152 14.6455C139.564 14.6455 136.513 15.9321 134.001 18.5036ZM136.757 34.4178C134.991 32.6109 134.109 30.4285 134.109 27.8722C134.109 25.3144 134.991 23.1322 136.757 21.3251C138.522 19.5167 140.654 18.6139 143.152 18.6139C145.649 18.6139 147.782 19.5167 149.548 21.3251C151.312 23.1322 152.196 25.3144 152.196 27.8722C152.196 30.4285 151.312 32.6109 149.548 34.4178C147.782 36.2262 145.649 37.1304 143.152 37.1304C140.654 37.1304 138.522 36.2262 136.757 34.4178ZM160.724 40.9495C161.799 40.9495 162.672 40.0578 162.672 38.9569V19.1483H170.341C171.853 19.1483 172.8 19.9633 173.203 21.0084C173.381 21.4702 173.47 21.9685 173.468 22.4637C173.468 22.9577 173.376 23.4572 173.198 23.9234C172.788 24.9907 171.834 25.8279 170.341 25.8279H166.792C165.718 25.8279 164.846 26.7195 164.846 27.822C164.846 28.3341 165.034 28.8001 165.345 29.1545L173.458 40.2071C174.101 41.0835 175.316 41.262 176.174 40.6035C177.031 39.9462 177.203 38.7016 176.561 37.824L170.677 29.8076C173.838 29.6819 175.892 27.78 176.819 25.3717C177.169 24.4591 177.347 23.4642 177.347 22.4637C177.349 21.466 177.176 20.4725 176.824 19.5599C175.87 17.0888 173.715 15.1618 170.341 15.1618H160.724C159.649 15.1618 158.776 16.0548 158.776 17.1544V38.9569C158.776 40.0578 159.649 40.9495 160.724 40.9495Z" fill="#101954"/>
<path fill-rule="evenodd" clip-rule="evenodd" d="M184.26 38.9573C184.26 40.0582 183.388 40.9498 182.313 40.9498C181.238 40.9498 180.366 40.0582 180.366 38.9573V17.1547C180.366 16.0552 181.238 15.1621 182.313 15.1621H191.932C195.302 15.1621 197.46 17.0891 198.412 19.5603C198.764 20.4729 198.938 21.4664 198.937 22.4641C198.935 23.4645 198.759 24.4594 198.408 25.372C197.482 27.7804 195.426 29.6823 192.267 29.8079L198.149 37.8242C198.793 38.702 198.619 39.9466 197.762 40.6039C196.904 41.2624 195.689 41.0837 195.046 40.2075L186.933 29.1548C186.624 28.8005 186.434 28.3344 186.434 27.8222C186.434 26.7199 187.306 25.8283 188.381 25.8283H191.932C193.422 25.8283 194.376 24.9911 194.786 23.9236C194.966 23.4575 195.056 22.9581 195.058 22.4641C195.058 21.9686 194.969 21.4706 194.791 21.0088C194.388 19.9635 193.441 19.1487 191.932 19.1487H184.26V38.9573Z" fill="#3166CF"/>
</g>
<defs>
<radialGradient id="paint0_radial" cx="0" cy="0" r="1" gradientUnits="userSpaceOnUse" gradientTransform="translate(0.263574 0.311029) rotate(12.3582) scale(189.072 177.951)">
<stop stop-color="#101954"/>
<stop offset="0.441929" stop-color="#2737A0"/>
<stop offset="1" stop-color="#3B95FF"/>
</radialGradient>
<clipPath id="clip0">
<rect width="200" height="56" fill="white"/>
</clipPath>
</defs>
</svg>
