<svg width="40" height="40" viewBox="0 0 40 40" fill="none" xmlns="http://www.w3.org/2000/svg">
<g clip-path="url(#clip0)">
<path d="M19.9689 0C13.4811 0 8.20312 5.27802 8.20312 11.7657V28.2343C8.20312 34.722 13.4811 40 19.9689 40C26.4566 40 31.7346 34.722 31.7346 28.2343V11.7657C31.7346 5.27802 26.4566 0 19.9689 0ZM29.3347 28.2343C29.3347 33.3984 25.1331 37.6001 19.9689 37.6001C14.8047 37.6001 10.603 33.3984 10.603 28.2343V11.7657C10.603 6.60156 14.8047 2.3999 19.9689 2.3999C25.1331 2.3999 29.3347 6.60156 29.3347 11.7657V28.2343Z" fill="white"/>
<path d="M19.969 7.95715C19.3062 7.95715 18.769 8.49426 18.769 9.1571V14.6802C18.769 15.3427 19.3062 15.8801 19.969 15.8801C20.6315 15.8801 21.1689 15.3427 21.1689 14.6802V9.1571C21.1689 8.49426 20.6318 7.95715 19.969 7.95715Z" fill="white"/>
</g>
<defs>
<clipPath id="clip0">
<rect width="40" height="40" fill="white"/>
</clipPath>
</defs>
</svg>
