<svg width="20" height="20" viewBox="0 0 20 20" fill="none" xmlns="http://www.w3.org/2000/svg">
<g clip-path="url(#clip0)">
<path d="M24.9678 -0.32251H10.5161L-5.4375 10.7188V19.8959H24.9678L26 19.2904V17.3733L25.3281 16.7344V14.9219L26 14.424V11.4747L25.3958 10.8959V9.04168L26 8.5253V5.57605L25.3958 5.04174V3.41674L26 2.6268V0.709741C26 0.139616 25.5378 -0.32251 24.9678 -0.32251Z" fill="#E5646E"/>
<path d="M10.021 2.62689H26.0002V5.5762H10.021V2.62689Z" fill="#F2F2F6"/>
<path d="M10 8.52533L10.5161 11.4746H26V8.52533H10Z" fill="#F2F2F6"/>
<path d="M-4.96775 16.1936V10.9376L-6 11.4747V14.424L-5.5625 14.7969V16.7344L-6 17.3733V19.2904C-6 19.8605 -5.53781 20.3226 -4.96775 20.3226H24.9678C25.5378 20.3226 26 19.8604 26 19.2904H-1.87094C-3.58125 19.2904 -4.96775 17.9039 -4.96775 16.1936Z" fill="#DB4655"/>
<path d="M10.5161 -0.32251H-4.96775L-5.625 0.709741L-4.96775 11.4747H10.5161V-0.32251Z" fill="#5055A0"/>
<path d="M8.45661 1.97866C8.1713 1.97866 7.93799 1.74754 7.93799 1.46254C7.93799 1.17754 8.1663 0.946411 8.45161 0.946411H8.45668C8.74199 0.946411 8.9728 1.17754 8.9728 1.46254C8.9728 1.74754 8.74193 1.97866 8.45661 1.97866Z" fill="white"/>
<path d="M8.45661 6.10775C8.1713 6.10775 7.93799 5.87663 7.93799 5.59163C7.93799 5.30663 8.1663 5.0755 8.45161 5.0755H8.45668C8.74199 5.0755 8.9728 5.30663 8.9728 5.59163C8.9728 5.87663 8.74193 6.10775 8.45661 6.10775Z" fill="white"/>
<path d="M8.45661 10.2367C8.1713 10.2367 7.93799 10.0055 7.93799 9.72053C7.93799 9.43553 8.1663 9.20441 8.45161 9.20441H8.45668C8.74199 9.20441 8.9728 9.43553 8.9728 9.72053C8.9728 10.0055 8.74193 10.2367 8.45661 10.2367Z" fill="white"/>
<path d="M8.45613 4.0433C8.17081 4.0433 7.9375 3.81217 7.9375 3.52717C7.9375 3.24217 8.16581 3.01105 8.45113 3.01105H8.45619C8.7415 3.01105 8.97231 3.24217 8.97231 3.52717C8.97231 3.81217 8.74144 4.0433 8.45613 4.0433Z" fill="#F2F2F6"/>
<path d="M8.45613 8.1722C8.17081 8.1722 7.9375 7.94108 7.9375 7.65608C7.9375 7.37108 8.16581 7.13995 8.45113 7.13995H8.45619C8.7415 7.13995 8.97231 7.37108 8.97231 7.65608C8.97231 7.94108 8.74144 8.1722 8.45613 8.1722Z" fill="#F2F2F6"/>
<path d="M2.26325 1.97866C1.97794 1.97866 1.74463 1.74754 1.74463 1.46254C1.74463 1.17754 1.97294 0.946411 2.25825 0.946411H2.26332C2.54863 0.946411 2.77944 1.17754 2.77944 1.46254C2.77944 1.74754 2.5485 1.97866 2.26325 1.97866Z" fill="white"/>
<path d="M2.26325 6.10775C1.97794 6.10775 1.74463 5.87663 1.74463 5.59163C1.74463 5.30663 1.97294 5.0755 2.25825 5.0755H2.26332C2.54863 5.0755 2.77944 5.30663 2.77944 5.59163C2.77944 5.87663 2.5485 6.10775 2.26325 6.10775Z" fill="white"/>
<path d="M2.26325 10.2367C1.97794 10.2367 1.74463 10.0055 1.74463 9.72053C1.74463 9.43553 1.97294 9.20441 2.25825 9.20441H2.26332C2.54863 9.20441 2.77944 9.43553 2.77944 9.72053C2.77944 10.0055 2.5485 10.2367 2.26325 10.2367Z" fill="white"/>
<path d="M2.26325 4.04317C1.97794 4.04317 1.74463 3.81205 1.74463 3.52705C1.74463 3.24205 1.97294 3.01093 2.25825 3.01093H2.26332C2.54863 3.01093 2.77944 3.24205 2.77944 3.52705C2.77938 3.81205 2.5485 4.04317 2.26325 4.04317Z" fill="#F2F2F6"/>
<path d="M2.26325 8.17208C1.97794 8.17208 1.74463 7.94096 1.74463 7.65596C1.74463 7.37096 1.97294 7.13983 2.25825 7.13983H2.26332C2.54863 7.13983 2.77944 7.37096 2.77944 7.65596C2.77944 7.94096 2.5485 8.17208 2.26325 8.17208Z" fill="#F2F2F6"/>
<path d="M0.714914 3.01089C0.429601 3.01089 0.196289 2.77976 0.196289 2.49476C0.196289 2.20976 0.424602 1.97864 0.709914 1.97864H0.714976C1.00029 1.97864 1.2311 2.20976 1.2311 2.49476C1.2311 2.77982 1.00023 3.01089 0.714914 3.01089Z" fill="#F2F2F6"/>
<path d="M0.714914 7.13986C0.429601 7.13986 0.196289 6.90873 0.196289 6.62373C0.196289 6.33873 0.424602 6.1076 0.709914 6.1076H0.714976C1.00029 6.1076 1.2311 6.33873 1.2311 6.62373C1.2311 6.90873 1.00023 7.13986 0.714914 7.13986Z" fill="#F2F2F6"/>
<path d="M0.714914 5.07552C0.429601 5.07552 0.196289 4.8444 0.196289 4.5594C0.196289 4.2744 0.424602 4.04327 0.709914 4.04327H0.714976C1.00029 4.04327 1.2311 4.2744 1.2311 4.5594C1.2311 4.8444 1.00023 5.07552 0.714914 5.07552Z" fill="white"/>
<path d="M0.714914 9.20443C0.429601 9.20443 0.196289 8.9733 0.196289 8.6883C0.196289 8.4033 0.424602 8.17218 0.709914 8.17218H0.714976C1.00029 8.17218 1.2311 8.4033 1.2311 8.6883C1.2311 8.9733 1.00023 9.20443 0.714914 9.20443Z" fill="white"/>
<path d="M5.35505 1.97866C5.06974 1.97866 4.83643 1.74754 4.83643 1.46254C4.83643 1.17754 5.06474 0.946411 5.35005 0.946411H5.35511C5.64043 0.946411 5.87124 1.17754 5.87124 1.46254C5.87124 1.74754 5.64036 1.97866 5.35505 1.97866Z" fill="#F2F2F6"/>
<path d="M5.35505 6.10775C5.06974 6.10775 4.83643 5.87663 4.83643 5.59163C4.83643 5.30663 5.06474 5.0755 5.35005 5.0755H5.35511C5.64043 5.0755 5.87124 5.30663 5.87124 5.59163C5.87124 5.87663 5.64036 6.10775 5.35505 6.10775Z" fill="#F2F2F6"/>
<path d="M5.35505 10.2367C5.06974 10.2367 4.83643 10.0055 4.83643 9.72053C4.83643 9.43553 5.06474 9.20441 5.35005 9.20441H5.35511C5.64043 9.20441 5.87124 9.43553 5.87124 9.72053C5.87124 10.0055 5.64036 10.2367 5.35505 10.2367Z" fill="#F2F2F6"/>
<path d="M5.35505 4.04317C5.06974 4.04317 4.83643 3.81205 4.83643 3.52705C4.83643 3.24205 5.06474 3.01093 5.35005 3.01093H5.35511C5.64043 3.01093 5.87124 3.24205 5.87124 3.52705C5.87118 3.81205 5.64036 4.04317 5.35505 4.04317Z" fill="white"/>
<path d="M5.35505 8.17208C5.06974 8.17208 4.83643 7.94096 4.83643 7.65596C4.83643 7.37096 5.06474 7.13983 5.35005 7.13983H5.35511C5.64043 7.13983 5.87124 7.37096 5.87124 7.65596C5.87124 7.94096 5.64036 8.17208 5.35505 8.17208Z" fill="white"/>
<path d="M3.80671 3.01089C3.5214 3.01089 3.28809 2.77976 3.28809 2.49476C3.28809 2.20976 3.5164 1.97864 3.80171 1.97864H3.80677C4.09209 1.97864 4.3229 2.20976 4.3229 2.49476C4.32284 2.77982 4.09202 3.01089 3.80671 3.01089Z" fill="white"/>
<path d="M3.80671 7.13986C3.5214 7.13986 3.28809 6.90873 3.28809 6.62373C3.28809 6.33873 3.5164 6.1076 3.80171 6.1076H3.80677C4.09209 6.1076 4.3229 6.33873 4.3229 6.62373C4.3229 6.90873 4.09202 7.13986 3.80671 7.13986Z" fill="white"/>
<path d="M3.80671 5.07552C3.5214 5.07552 3.28809 4.8444 3.28809 4.5594C3.28809 4.2744 3.5164 4.04327 3.80171 4.04327H3.80677C4.09209 4.04327 4.3229 4.2744 4.3229 4.5594C4.3229 4.8444 4.09202 5.07552 3.80671 5.07552Z" fill="#F2F2F6"/>
<path d="M3.80671 9.20443C3.5214 9.20443 3.28809 8.9733 3.28809 8.6883C3.28809 8.4033 3.5164 8.17218 3.80171 8.17218H3.80677C4.09209 8.17218 4.3229 8.4033 4.3229 8.6883C4.3229 8.9733 4.09202 9.20443 3.80671 9.20443Z" fill="#F2F2F6"/>
<path d="M6.90827 3.01089C6.62296 3.01089 6.38965 2.77976 6.38965 2.49476C6.38965 2.20976 6.61796 1.97864 6.90327 1.97864H6.90834C7.19365 1.97864 7.42446 2.20976 7.42446 2.49476C7.4244 2.77982 7.19359 3.01089 6.90827 3.01089Z" fill="#F2F2F6"/>
<path d="M6.90827 7.13986C6.62296 7.13986 6.38965 6.90873 6.38965 6.62373C6.38965 6.33873 6.61796 6.1076 6.90327 6.1076H6.90834C7.19365 6.1076 7.42446 6.33873 7.42446 6.62373C7.42446 6.90873 7.19359 7.13986 6.90827 7.13986Z" fill="#F2F2F6"/>
<path d="M6.90827 5.07552C6.62296 5.07552 6.38965 4.8444 6.38965 4.5594C6.38965 4.2744 6.61796 4.04327 6.90327 4.04327H6.90834C7.19365 4.04327 7.42446 4.2744 7.42446 4.5594C7.42446 4.8444 7.19359 5.07552 6.90827 5.07552Z" fill="white"/>
<path d="M6.90827 9.20443C6.62296 9.20443 6.38965 8.9733 6.38965 8.6883C6.38965 8.4033 6.61796 8.17218 6.90327 8.17218H6.90834C7.19365 8.17218 7.42446 8.4033 7.42446 8.6883C7.42446 8.9733 7.19359 9.20443 6.90827 9.20443Z" fill="white"/>
<path d="M-5.8125 16.5209L-4.73375 17.3733H26V14.424H-4.96775L-5.8125 16.5209Z" fill="#F2F2F6"/>
</g>
<defs>
<clipPath id="clip0">
<rect width="20" height="20" rx="10" fill="white"/>
</clipPath>
</defs>
</svg>
