<svg width="20" height="20" viewBox="0 0 20 20" fill="none" xmlns="http://www.w3.org/2000/svg">
<g clip-path="url(#clip0)">
<path d="M24.4482 -0.482788H-6.44825C-6.75294 -0.482788 -7 -0.235789 -7 0.0688981V19.9309C-7 20.2356 -6.75294 20.4827 -6.44825 20.4827H24.4483C24.7529 20.4827 25 20.2356 25 19.9309V0.0688981C24.9999 -0.235789 24.7529 -0.482788 24.4482 -0.482788Z" fill="#82C3D2"/>
<path d="M9.92117 11.5398C11.4954 11.5398 12.7715 10.2636 12.7715 8.68941C12.7715 7.1152 11.4954 5.83905 9.92117 5.83905C8.34695 5.83905 7.0708 7.1152 7.0708 8.68941C7.0708 10.2636 8.34695 11.5398 9.92117 11.5398Z" fill="#FFE15A"/>
<path d="M10.1356 5.05525C10.1356 5.17331 10.0399 5.26906 9.92182 5.26906C9.80376 5.26906 9.70801 5.17331 9.70801 5.05525C9.70801 4.93719 9.92182 4.41388 9.92182 4.41388C9.92182 4.41388 10.1356 4.93719 10.1356 5.05525Z" fill="#FFE15A"/>
<path d="M9.70801 12.3241C9.70801 12.206 9.80376 12.1103 9.92182 12.1103C10.0399 12.1103 10.1356 12.206 10.1356 12.3241C10.1356 12.4422 9.92182 12.9655 9.92182 12.9655C9.92182 12.9655 9.70801 12.4422 9.70801 12.3241Z" fill="#FFE15A"/>
<path d="M13.5561 8.90339C13.438 8.90339 13.3423 8.80764 13.3423 8.68958C13.3423 8.57152 13.438 8.47577 13.5561 8.47577C13.6742 8.47577 14.1975 8.68958 14.1975 8.68958C14.1975 8.68958 13.6742 8.90339 13.5561 8.90339Z" fill="#FFE15A"/>
<path d="M6.28737 8.47589C6.40543 8.47589 6.50118 8.57164 6.50118 8.6897C6.50118 8.80776 6.40543 8.90351 6.28737 8.90351C6.16931 8.90351 5.646 8.6897 5.646 8.6897C5.646 8.6897 6.16931 8.47589 6.28737 8.47589Z" fill="#FFE15A"/>
<path d="M12.6429 6.27095C12.5594 6.35445 12.424 6.35445 12.3405 6.27095C12.2569 6.18745 12.257 6.05214 12.3405 5.96857C12.424 5.88501 12.9452 5.6662 12.9452 5.6662C12.9452 5.6662 12.7264 6.18745 12.6429 6.27095Z" fill="#FFE15A"/>
<path d="M7.20076 11.1085C7.28426 11.025 7.41957 11.025 7.50314 11.1085C7.5867 11.192 7.58664 11.3273 7.50314 11.4109C7.41964 11.4945 6.89844 11.7132 6.89844 11.7132C6.89844 11.7132 7.11726 11.1921 7.20076 11.1085Z" fill="#FFE15A"/>
<path d="M12.3405 11.4107C12.257 11.3272 12.257 11.1919 12.3405 11.1083C12.424 11.0247 12.5593 11.0248 12.6428 11.1083C12.7264 11.1918 12.9452 11.713 12.9452 11.713C12.9452 11.713 12.424 11.4941 12.3405 11.4107Z" fill="#FFE15A"/>
<path d="M7.50319 5.96845C7.58669 6.05195 7.58669 6.18726 7.50319 6.27082C7.41969 6.35439 7.28438 6.35432 7.20081 6.27082C7.11725 6.18732 6.89844 5.66614 6.89844 5.66614C6.89844 5.66614 7.41969 5.88501 7.50319 5.96845Z" fill="#FFE15A"/>
<path d="M8.72865 5.25001C8.77384 5.35913 8.72203 5.48413 8.6129 5.52932C8.50377 5.57451 8.37877 5.5227 8.33358 5.41357C8.28839 5.30445 8.28564 4.7392 8.28564 4.7392C8.28564 4.7392 8.68346 5.14088 8.72865 5.25001Z" fill="#FFE15A"/>
<path d="M11.1154 12.1293C11.0703 12.0201 11.1221 11.8951 11.2312 11.8499C11.3403 11.8048 11.4653 11.8566 11.5105 11.9657C11.5557 12.0748 11.5584 12.6401 11.5584 12.6401C11.5584 12.6401 11.1606 12.2384 11.1154 12.1293Z" fill="#FFE15A"/>
<path d="M13.3616 7.49634C13.2524 7.54153 13.1274 7.48972 13.0822 7.38059C13.0371 7.27147 13.0889 7.14647 13.198 7.10128C13.3071 7.05609 13.8723 7.05334 13.8723 7.05334C13.8723 7.05334 13.4707 7.45109 13.3616 7.49634Z" fill="#FFE15A"/>
<path d="M6.48199 9.88297C6.59112 9.83778 6.71611 9.88959 6.7613 9.99872C6.80649 10.1078 6.75467 10.2328 6.64555 10.278C6.53643 10.3232 5.97119 10.326 5.97119 10.326C5.97119 10.326 6.37287 9.92822 6.48199 9.88297Z" fill="#FFE15A"/>
<path d="M11.5105 5.41369C11.4653 5.52281 11.3402 5.57456 11.2312 5.52944C11.122 5.48425 11.0703 5.35919 11.1154 5.25013C11.1606 5.14107 11.5583 4.73938 11.5583 4.73938C11.5583 4.73938 11.5557 5.30463 11.5105 5.41369Z" fill="#FFE15A"/>
<path d="M8.33352 11.9657C8.37871 11.8565 8.50378 11.8048 8.61285 11.8499C8.72198 11.8951 8.77373 12.0202 8.7286 12.1292C8.68341 12.2384 8.28564 12.64 8.28564 12.64C8.28564 12.64 8.28833 12.0748 8.33352 11.9657Z" fill="#FFE15A"/>
<path d="M13.198 10.2779C13.0888 10.2328 13.0371 10.1077 13.0822 9.99863C13.1274 9.88951 13.2525 9.83776 13.3615 9.88288C13.4706 9.92801 13.8723 10.3258 13.8723 10.3258C13.8723 10.3258 13.307 10.3232 13.198 10.2779Z" fill="#FFE15A"/>
<path d="M6.6455 7.10134C6.75462 7.14653 6.80637 7.27159 6.76125 7.38065C6.71606 7.48972 6.591 7.54153 6.48194 7.4964C6.37288 7.45122 5.97119 7.05347 5.97119 7.05347C5.97119 7.05347 6.5365 7.05609 6.6455 7.10134Z" fill="#FFE15A"/>
<path d="M9.42265 5.08322C9.44572 5.19903 9.37052 5.3116 9.25464 5.3346C9.13881 5.35766 9.02624 5.28247 9.00324 5.1666C8.98018 5.05079 9.08781 4.49585 9.08781 4.49585C9.08781 4.49585 9.39959 4.96741 9.42265 5.08322Z" fill="#FFE15A"/>
<path d="M10.4212 12.2959C10.3981 12.1801 10.4733 12.0676 10.5891 12.0446C10.705 12.0215 10.8175 12.0967 10.8405 12.2126C10.8636 12.3284 10.756 12.8833 10.756 12.8833C10.756 12.8833 10.4441 12.4118 10.4212 12.2959Z" fill="#FFE15A"/>
<path d="M13.5285 8.19019C13.4127 8.21326 13.3001 8.13807 13.2771 8.02219C13.254 7.90632 13.3292 7.79382 13.4451 7.77082C13.5609 7.74776 14.1159 7.85538 14.1159 7.85538C14.1159 7.85538 13.6443 8.16719 13.5285 8.19019Z" fill="#FFE15A"/>
<path d="M6.31541 9.18903C6.43122 9.16597 6.54378 9.24116 6.56678 9.35703C6.58985 9.47291 6.51466 9.58541 6.39878 9.60841C6.28297 9.63147 5.72803 9.52385 5.72803 9.52385C5.72803 9.52385 6.19959 9.21203 6.31541 9.18903Z" fill="#FFE15A"/>
<path d="M12.1191 5.78646C12.0536 5.88465 11.9207 5.91103 11.8226 5.8454C11.7244 5.77978 11.698 5.64703 11.7636 5.54884C11.8292 5.45065 12.2977 5.13434 12.2977 5.13434C12.2977 5.13434 12.1847 5.68821 12.1191 5.78646Z" fill="#FFE15A"/>
<path d="M7.72495 11.5927C7.79051 11.4945 7.92333 11.4681 8.02152 11.5338C8.1197 11.5993 8.14608 11.7321 8.08045 11.8303C8.01489 11.9285 7.54639 12.2448 7.54639 12.2448C7.54639 12.2448 7.65939 11.691 7.72495 11.5927Z" fill="#FFE15A"/>
<path d="M12.825 10.8866C12.7268 10.8211 12.7004 10.6883 12.7661 10.5901C12.8317 10.4919 12.9645 10.4655 13.0626 10.5311C13.1608 10.5967 13.4772 11.0652 13.4772 11.0652C13.4772 11.0652 12.9232 10.9522 12.825 10.8866Z" fill="#FFE15A"/>
<path d="M7.01835 6.49265C7.11654 6.55821 7.14291 6.69102 7.07729 6.78921C7.01172 6.8874 6.87891 6.91377 6.78072 6.84815C6.68253 6.78252 6.36621 6.31409 6.36621 6.31409C6.36621 6.31409 6.92022 6.42709 7.01835 6.49265Z" fill="#FFE15A"/>
<path d="M8.08046 5.5489C8.14602 5.64708 8.11964 5.77983 8.02152 5.84546C7.92339 5.91108 7.79058 5.88465 7.72495 5.78652C7.65939 5.68833 7.54639 5.13446 7.54639 5.13446C7.54639 5.13446 8.01489 5.45077 8.08046 5.5489Z" fill="#FFE15A"/>
<path d="M11.7631 11.8305C11.6975 11.7323 11.7239 11.5995 11.822 11.5339C11.9202 11.4683 12.053 11.4947 12.1186 11.5928C12.1842 11.691 12.2972 12.2449 12.2972 12.2449C12.2972 12.2449 11.8287 11.9286 11.7631 11.8305Z" fill="#FFE15A"/>
<path d="M13.0626 6.84815C12.9644 6.91371 12.8317 6.88734 12.766 6.78921C12.7005 6.69102 12.7268 6.55827 12.825 6.49265C12.9232 6.42709 13.4771 6.31409 13.4771 6.31409C13.4771 6.31409 13.1608 6.78259 13.0626 6.84815Z" fill="#FFE15A"/>
<path d="M6.78114 10.5311C6.87933 10.4655 7.01208 10.4919 7.07771 10.59C7.14327 10.6882 7.1169 10.821 7.01877 10.8866C6.92058 10.9522 6.3667 11.0652 6.3667 11.0652C6.3667 11.0652 6.68295 10.5967 6.78114 10.5311Z" fill="#FFE15A"/>
<path d="M10.8405 5.1666C10.8174 5.28241 10.705 5.35766 10.5891 5.3346C10.4733 5.31154 10.3981 5.19904 10.4211 5.08322C10.4442 4.96741 10.756 4.49585 10.756 4.49585C10.756 4.49585 10.8635 5.05079 10.8405 5.1666Z" fill="#FFE15A"/>
<path d="M9.00323 12.2127C9.02629 12.0969 9.1388 12.0216 9.25462 12.0447C9.37044 12.0677 9.4457 12.1802 9.42264 12.2961C9.39957 12.4119 9.08779 12.8834 9.08779 12.8834C9.08779 12.8834 8.98022 12.3285 9.00323 12.2127Z" fill="#FFE15A"/>
<path d="M13.4451 9.60847C13.3293 9.5854 13.254 9.4729 13.2771 9.35709C13.3002 9.24128 13.4127 9.16603 13.5285 9.18909C13.6443 9.21215 14.1158 9.5239 14.1158 9.5239C14.1158 9.5239 13.5609 9.63147 13.4451 9.60847Z" fill="#FFE15A"/>
<path d="M6.39877 7.77099C6.51459 7.79405 6.58983 7.90655 6.56677 8.02236C6.54371 8.13817 6.43121 8.21342 6.3154 8.19036C6.19959 8.1673 5.72803 7.85555 5.72803 7.85555C5.72803 7.85555 6.28296 7.74799 6.39877 7.77099Z" fill="#FFE15A"/>
<path d="M16.627 9.43967C16.5435 9.40455 16.448 9.4448 16.4132 9.5278C16.4132 9.52817 16.4132 9.52817 16.4132 9.52817C16.4126 9.52974 16.4093 9.53742 16.4038 9.55055C16.2802 9.83917 16.0246 10.261 15.7665 10.6578C16.0069 9.88386 16.2267 9.05724 16.242 8.99911C16.265 8.9123 16.2136 8.82318 16.1269 8.79961C16.0401 8.7763 15.9508 8.8268 15.9265 8.91324C15.8143 9.31524 15.5849 9.8443 15.3732 10.2922C15.412 9.7928 15.4193 9.33018 15.4198 9.29668C15.4212 9.20824 15.3518 9.13511 15.2634 9.13093C15.1802 9.13349 15.1 9.19418 15.0934 9.28255C14.8841 12.1618 12.1135 13.4498 11.8438 13.5683C11.7027 13.5824 11.0452 13.6564 10.4486 13.8636C10.3809 13.8871 10.3233 13.9107 10.2659 13.934C10.2446 13.926 10.2217 13.9215 10.1977 13.923C8.36631 14.0555 6.90606 13.3042 5.85657 11.6947C5.06363 10.4786 4.81495 9.20211 4.81251 9.18936C4.79576 9.10061 4.71076 9.04343 4.62164 9.05911C4.53289 9.07599 4.47457 9.16124 4.49139 9.24999C4.49801 9.28524 4.60714 9.84242 4.90763 10.5757C4.50557 9.94105 4.22539 9.17218 4.12676 8.77174C4.12476 8.76374 4.11964 8.75768 4.11664 8.7503C4.11201 8.73899 4.10814 8.72761 4.10132 8.7178C4.09651 8.71086 4.0902 8.7058 4.08451 8.69974C4.07557 8.6903 4.06701 8.68105 4.05607 8.67399C4.04982 8.66993 4.04283 8.66793 4.03601 8.66474C4.02395 8.65911 4.01214 8.65355 3.9987 8.65099C3.98939 8.64918 3.97989 8.65036 3.9702 8.65018C3.96039 8.65005 3.95114 8.64755 3.94108 8.6493C3.93889 8.64968 3.9372 8.65118 3.93501 8.65168C3.93289 8.65211 3.93089 8.65143 3.92876 8.65186C3.92001 8.65399 3.91333 8.65949 3.90533 8.66293C3.89514 8.66736 3.8847 8.67068 3.87576 8.67686C3.86695 8.68293 3.86039 8.6908 3.85308 8.69836C3.84576 8.70586 3.83814 8.71249 3.83239 8.72118C3.82658 8.72999 3.82345 8.73993 3.81933 8.74974C3.81539 8.7593 3.81083 8.7683 3.80876 8.77861C3.80664 8.78918 3.80758 8.80005 3.80764 8.81111C3.80764 8.81993 3.8052 8.82836 3.80676 8.83736C3.80739 8.84124 3.80864 8.84511 3.80933 8.84886V8.84949C3.80951 8.85018 3.80976 8.85111 3.80995 8.85186C3.91108 9.44767 4.15207 10.0653 4.37001 10.5363C4.02395 10.1436 3.73476 9.69117 3.63226 9.42324C3.62933 9.41542 3.62339 9.40999 3.61939 9.40299C3.61333 9.39218 3.60801 9.38111 3.59983 9.37217C3.59401 9.3658 3.58695 9.36168 3.58033 9.35636C3.57039 9.34836 3.56095 9.3403 3.54945 9.3348C3.54208 9.3313 3.53408 9.33017 3.52626 9.32774C3.5142 9.32411 3.50251 9.32011 3.4897 9.3193C3.47964 9.31861 3.46964 9.32117 3.45945 9.32249C3.45001 9.32367 3.4407 9.32249 3.43133 9.32542C3.42951 9.32599 3.42827 9.32743 3.42658 9.32805C3.42483 9.32861 3.42308 9.32824 3.42133 9.32892C3.41245 9.3323 3.40614 9.33886 3.3982 9.34355C3.38889 9.34905 3.37895 9.35361 3.37101 9.36074C3.36289 9.36805 3.35726 9.37711 3.35089 9.3858C3.34483 9.39399 3.33808 9.4013 3.33358 9.41042C3.32889 9.41999 3.32714 9.43036 3.32445 9.44068C3.32177 9.45074 3.3182 9.46011 3.31752 9.47067C3.31677 9.48124 3.31939 9.4918 3.32077 9.50249C3.32195 9.51174 3.3207 9.52092 3.32358 9.53005C3.50145 10.1038 3.9292 10.7864 4.26432 11.2673C3.98508 11.0521 3.77983 10.8194 3.72026 10.7491C3.71383 10.7415 3.70751 10.7338 3.70108 10.7262C3.64345 10.6569 3.54164 10.647 3.47183 10.7035C3.40227 10.7603 3.39133 10.8625 3.44758 10.9324C3.45064 10.9362 3.46289 10.9515 3.48339 10.9755C3.72864 11.2673 3.99582 11.5396 4.23789 11.7695L3.90676 11.6284C3.83126 11.5959 3.74251 11.6252 3.7012 11.697C3.65983 11.7689 3.67851 11.8599 3.74476 11.9097C3.77701 11.9336 4.36339 12.3717 4.87101 12.6306C4.82313 12.6335 4.76695 12.63 4.70407 12.6252C4.62732 12.6178 4.55182 12.6727 4.53314 12.7506C4.51476 12.8288 4.55564 12.9087 4.62989 12.9393C4.64239 12.9444 4.79707 13.0082 4.98807 13.0762C4.94351 13.0944 4.90807 13.1318 4.89338 13.1803C4.87138 13.2528 4.90232 13.3314 4.96807 13.369C4.9852 13.3789 5.21626 13.5114 5.50219 13.6289C5.49457 13.6407 5.48832 13.6534 5.48363 13.6675C5.46126 13.7361 5.48682 13.8115 5.54638 13.8527C5.59601 13.8868 6.70632 14.6403 8.00306 14.6403C8.08819 14.6403 8.17418 14.6371 8.26068 14.6301C8.35056 14.623 8.41781 14.5442 8.41062 14.4542C8.40343 14.3641 8.32537 14.2961 8.23456 14.3044C7.41994 14.3709 6.63513 14.065 6.16838 13.8312C6.23 13.8162 6.26544 13.8025 6.27425 13.799C6.34625 13.7696 6.38775 13.6939 6.37369 13.6176C6.35963 13.5414 6.29388 13.4854 6.21613 13.4838C6.02663 13.4799 5.76419 13.3877 5.53813 13.2887C5.62351 13.2459 5.67338 13.205 5.67776 13.2015C5.72694 13.1603 5.74769 13.0945 5.73094 13.0326C5.71407 12.971 5.66257 12.9247 5.59944 12.9145C5.53001 12.903 5.44344 12.8806 5.35282 12.8532C5.44094 12.8024 5.47845 12.7465 5.49282 12.7181C5.51551 12.6728 5.51601 12.6197 5.49426 12.5741C5.47238 12.5285 5.43076 12.4955 5.38119 12.485C5.33844 12.4757 5.29001 12.4601 5.2377 12.4397C5.24726 12.4301 5.25607 12.4192 5.2632 12.4068C5.30482 12.3362 5.28763 12.2455 5.22301 12.1948C5.21963 12.1922 5.09276 12.0927 4.90063 11.9269C4.93113 11.9157 4.95807 11.895 4.97757 11.8669C5.01876 11.8075 5.01595 11.728 4.9707 11.6718C4.96707 11.6673 4.84001 11.5075 4.66489 11.2649C4.7227 11.3098 4.78045 11.3557 4.8382 11.3928C4.86538 11.41 4.89613 11.4187 4.92663 11.4187C4.96801 11.4187 5.00882 11.403 5.04026 11.3727C5.0532 11.3602 5.06332 11.3458 5.07132 11.3305C5.17051 11.4364 5.2747 11.5326 5.38413 11.6147C5.39838 11.6254 5.41569 11.6252 5.43169 11.6305C5.47807 11.7083 5.52632 11.7862 5.57694 11.864C6.56963 13.3914 7.96931 14.2095 9.64806 14.2587C9.49349 14.3525 9.32568 14.4495 9.05999 14.553C9.00199 14.5757 8.95074 14.5983 8.89924 14.621C8.87437 14.6259 8.85106 14.6349 8.83162 14.6503C8.36787 14.865 8.17587 15.0771 8.098 15.2255C8.02025 15.373 8.08731 15.5243 8.18225 15.6029C8.21175 15.6271 8.24931 15.6395 8.28693 15.6395C8.31281 15.6395 8.33868 15.6338 8.36212 15.622C8.41993 15.5932 8.45856 15.5322 8.456 15.4681C8.46268 15.4608 8.49112 15.4372 8.58018 15.4342C8.64512 15.4288 8.78181 15.4435 8.94131 15.4562C9.09306 15.4687 9.27506 15.4829 9.46856 15.4929C9.34749 15.634 9.20681 15.7975 9.20681 15.7975C9.16456 15.8467 9.15524 15.9163 9.18337 15.9747C9.21162 16.0335 9.27249 16.0699 9.33631 16.0676C9.46549 16.0631 9.55324 16.0605 9.61087 16.0594C9.66112 16.1252 9.72281 16.1513 9.76256 16.1615C9.87499 16.1902 9.98705 16.1452 10.0714 16.0919C10.1353 16.1379 10.1992 16.1574 10.2498 16.1647C10.3639 16.1804 10.4696 16.1472 10.5461 16.1095C10.6252 16.1606 10.7028 16.1737 10.7619 16.1737C10.7627 16.1737 10.7637 16.1737 10.7646 16.1737C10.8922 16.173 11.0038 16.1114 11.0827 16.051C11.1525 16.0925 11.2192 16.1059 11.2708 16.1082C11.3879 16.1123 11.4849 16.0674 11.5494 16.0252C11.7797 16.0714 11.9783 15.9629 12.1095 15.8432C12.1694 15.878 12.2264 15.8866 12.2717 15.8844C12.3884 15.8802 12.4773 15.8093 12.5344 15.7458C12.7955 15.7774 12.983 15.7292 13.0913 15.6005C13.1504 15.5306 13.1744 15.4518 13.1809 15.3799C13.9055 15.3758 13.971 14.9802 13.9764 14.9313C13.9811 14.8869 13.9676 14.8425 13.9387 14.8084C13.91 14.7743 13.8683 14.7532 13.8238 14.7506L11.924 14.6364C11.8445 14.6306 11.7736 14.6839 11.7552 14.7615C11.7548 14.7628 11.7224 14.8835 11.6211 14.98C11.4847 15.1102 11.2652 15.1789 11.0264 15.2154C11.0272 15.1935 11.0242 15.1712 11.0158 15.1495C10.9832 15.0652 10.8884 15.0243 10.8044 15.056C10.4122 15.2082 9.77724 15.189 9.28049 15.1545C9.35668 15.0922 9.44843 15.0305 9.52174 14.9903C9.58368 14.9562 9.61693 14.8862 9.60381 14.8167C9.59431 14.7661 9.55774 14.7309 9.51362 14.7083C9.65174 14.6385 9.76499 14.5712 9.87243 14.5057C10.0589 14.3914 10.2351 14.2837 10.556 14.1724C11.1754 13.9572 11.8922 13.8917 11.8994 13.891C11.9156 13.8897 11.9316 13.8856 11.9467 13.8795C11.9722 13.869 13.9941 13.022 14.9467 11.0676C14.9342 11.1267 14.9208 11.1807 14.9062 11.2279C14.8813 11.3084 14.9215 11.3942 14.9991 11.4267C15.0591 11.452 15.1273 11.4389 15.1735 11.3961C15.1133 11.5548 15.0588 11.6796 15.0144 11.7534C14.9691 11.8284 14.991 11.9258 15.0639 11.9743C15.081 11.9855 15.0993 11.9931 15.1182 11.9976C15.0444 12.1055 14.9697 12.2077 14.8951 12.3012C14.8455 12.3635 14.8483 12.4523 14.9002 12.511C14.7722 12.6451 14.6587 12.7556 14.5725 12.8259C14.5162 12.8715 14.4978 12.9478 14.5237 13.013C14.4405 13.0605 14.3722 13.0941 14.3248 13.1084C14.2453 13.1324 14.1965 13.2125 14.2115 13.2942C14.2193 13.3374 14.2435 13.3737 14.277 13.3977C14.1771 13.4245 14.0677 13.4504 13.949 13.4739C13.8821 13.4873 13.8305 13.5407 13.8195 13.608C13.8087 13.6754 13.8407 13.7424 13.8998 13.7762C13.9049 13.7791 13.9607 13.8107 14.0462 13.8471C13.73 13.9745 13.1654 14.1409 12.2388 14.2322C12.149 14.2411 12.0833 14.3213 12.0922 14.411C12.101 14.5007 12.1786 14.563 12.271 14.5579C14.0299 14.3839 14.573 13.9436 14.5952 13.9247C14.646 13.8822 14.6661 13.813 14.646 13.7498C14.6326 13.708 14.6032 13.6742 14.5655 13.6546C15.1274 13.4777 15.3687 13.282 15.3813 13.2715C15.4429 13.2204 15.4584 13.132 15.4178 13.0627C15.377 12.9934 15.2919 12.9634 15.2177 12.9934C15.1968 13.0014 15.1634 13.0096 15.1212 13.0179C15.4983 12.7597 15.8987 12.4521 16.0747 12.3149C16.1057 12.2919 16.1338 12.2698 16.1585 12.249C16.2269 12.1916 16.2365 12.09 16.18 12.0208C16.124 11.9519 16.022 11.9403 15.952 11.9955C15.9265 12.0157 15.9 12.0364 15.8725 12.0578C15.7913 12.1182 15.6873 12.1865 15.574 12.2567C16.002 11.7707 16.4328 11.2439 16.5559 11.0926C16.5671 11.0789 16.5781 11.0652 16.5893 11.0514C16.6458 10.9812 16.6348 10.8784 16.5645 10.8219C16.4941 10.7644 16.3912 10.7762 16.3348 10.8461L16.3344 10.8465L16.3343 10.8469C16.3312 10.8504 16.3174 10.8676 16.2941 10.8964C16.1652 11.0537 16.0294 11.2061 15.8955 11.3484C16.3315 10.5582 16.6616 9.78042 16.71 9.66517C16.7117 9.66105 16.7133 9.65692 16.7151 9.65267C16.7497 9.56999 16.7103 9.47417 16.627 9.43967ZM8.96512 14.9501L9.00974 14.9559C8.95499 15.0071 8.91043 15.0645 8.87506 15.1237C8.79743 15.1175 8.727 15.112 8.67181 15.1095C8.74787 15.0599 8.84574 15.0059 8.96512 14.9501Z" fill="#FFE15A"/>
</g>
<defs>
<clipPath id="clip0">
<rect width="20" height="20" rx="10" fill="white"/>
</clipPath>
</defs>
</svg>
