<svg width="20" height="20" viewBox="0 0 20 20" fill="none" xmlns="http://www.w3.org/2000/svg">
<path d="M10 0C4.48593 0 0 4.48593 0 10C0 15.5141 4.48593 20 10 20C15.5141 20 20 15.5141 20 10C20 4.48593 15.5141 0 10 0ZM9.41406 4.90845C8.52264 4.87015 7.64023 4.74487 6.79764 4.54117C6.93222 4.22226 7.07825 3.91602 7.23572 3.62579C7.88177 2.4353 8.67493 1.59988 9.41406 1.2973V4.90845ZM9.41406 6.08124V9.41406H5.75424C5.80582 8.11325 6.02753 6.8219 6.3942 5.64728C7.36588 5.89203 8.38593 6.04019 9.41406 6.08124ZM9.41406 10.5859V13.9188C8.38593 13.9598 7.36588 14.108 6.3942 14.3527C6.02753 13.1781 5.80582 11.8867 5.75424 10.5859H9.41406ZM9.41406 15.0916V18.7027C8.67493 18.4001 7.88177 17.5647 7.23572 16.3742C7.07825 16.084 6.93222 15.7777 6.79764 15.4588C7.64023 15.2551 8.52249 15.1299 9.41406 15.0916ZM10.5859 15.0916C11.4774 15.1299 12.3598 15.2551 13.2024 15.4588C13.0678 15.7777 12.9218 16.084 12.7643 16.3742C12.1182 17.5647 11.3251 18.4001 10.5859 18.7027V15.0916ZM10.5859 13.9188V10.5859H14.2458C14.1942 11.8867 13.9725 13.1781 13.6058 14.3527C12.6341 14.108 11.6141 13.9598 10.5859 13.9188ZM10.5859 9.41406V6.08124C11.6141 6.04019 12.6341 5.89203 13.6058 5.64728C13.9725 6.8219 14.1942 8.11325 14.2458 9.41406H10.5859ZM10.5859 4.90845V1.2973C11.3251 1.59988 12.1182 2.4353 12.7643 3.62579C12.9218 3.91602 13.0678 4.22226 13.2024 4.54117C12.3598 4.74487 11.4774 4.87015 10.5859 4.90845ZM13.7943 3.06686C13.5008 2.52609 13.1821 2.04941 12.8461 1.64276C14.0176 2.04285 15.0789 2.68295 15.9714 3.50388C15.4623 3.77655 14.9138 4.01337 14.3367 4.21127C14.173 3.81363 13.992 3.43109 13.7943 3.06686ZM6.20575 3.06686C6.008 3.43109 5.82703 3.81363 5.6633 4.21127C5.08621 4.01337 4.53766 3.7764 4.02863 3.50388C4.92111 2.68295 5.98236 2.04285 7.15393 1.64276C6.81793 2.04941 6.49933 2.52594 6.20575 3.06686ZM5.26688 5.31265C4.86694 6.5921 4.63181 7.98691 4.58115 9.41406H1.19186C1.31729 7.50961 2.04865 5.76797 3.1955 4.38156C3.83194 4.74655 4.52896 5.05875 5.26688 5.31265ZM4.58115 10.5859C4.63181 12.0132 4.86694 13.4079 5.26688 14.6873C4.52896 14.9413 3.83194 15.2534 3.1955 15.6184C2.04865 14.232 1.31729 12.4904 1.19186 10.5859H4.58115ZM5.6633 15.7887C5.82703 16.1864 6.008 16.5689 6.20575 16.9331C6.49933 17.4739 6.81793 17.9506 7.15393 18.3572C5.98236 17.9572 4.92111 17.317 4.02878 16.4961C4.53751 16.2236 5.08621 15.9866 5.6633 15.7887ZM13.7943 16.9331C13.992 16.5689 14.173 16.1864 14.3367 15.7887C14.9138 15.9866 15.4623 16.2236 15.9714 16.4961C15.0789 17.317 14.0176 17.9572 12.8461 18.3572C13.1821 17.9506 13.5007 17.4741 13.7943 16.9331ZM14.7331 14.6873C15.1331 13.4079 15.3682 12.0131 15.4189 10.5859H18.8081C18.6827 12.4904 17.9514 14.232 16.8045 15.6184C16.1681 15.2534 15.471 14.9413 14.7331 14.6873ZM15.4189 9.41406C15.3682 7.98676 15.1331 6.5921 14.7331 5.31265C15.471 5.05875 16.1681 4.74655 16.8045 4.38156C17.9514 5.76797 18.6827 7.50961 18.8081 9.41406H15.4189Z" fill="#19B7BB"/>
</svg>
