<svg width="64" height="64" viewBox="0 0 64 64" fill="none" xmlns="http://www.w3.org/2000/svg">
<g clip-path="url(#clip0)">
<path d="M63.1284 29.8956L44.0831 10.8503C42.9211 9.68826 41.0365 9.68826 39.8745 10.8503C38.7123 12.0125 38.7123 13.8966 39.8745 15.0588L53.8398 29.024H2.97584C1.33246 29.024 0 30.3565 0 31.9999C0 33.643 1.33246 34.9757 2.97584 34.9757H53.8398L39.875 48.941C38.7128 50.1032 38.7128 51.9873 39.875 53.1495C40.4559 53.7302 41.2177 54.0211 41.9793 54.0211C42.7409 54.0211 43.5024 53.7302 44.0836 53.1495L63.1284 34.1042C64.2907 32.9419 64.2907 31.0579 63.1284 29.8956Z" fill="white"/>
</g>
<defs>
<clipPath id="clip0">
<rect width="64" height="64" fill="white"/>
</clipPath>
</defs>
</svg>
