<svg width="217" height="69" viewBox="0 0 217 69" fill="none" xmlns="http://www.w3.org/2000/svg">
<path fill-rule="evenodd" clip-rule="evenodd" d="M35.2086 0C54.636 0 70.4172 15.4636 70.4172 34.5C70.4172 53.5364 54.636 69 35.2086 69C15.7814 69 0 53.5364 0 34.5C0 15.4636 15.7814 0 35.2086 0Z" fill="black"/>
<path fill-rule="evenodd" clip-rule="evenodd" d="M61.5256 38.8999C60.4379 40.1024 58.48 40.9769 57.066 41.7968L45.9714 48.0825C42.9258 49.7769 33.3541 56.0625 30.4173 56.0625C26.8279 56.0625 23.9455 53.1656 23.9455 49.5582C23.9455 49.5036 23.9455 49.4488 23.9455 49.3942C23.9455 39.4466 23.9455 29.4988 23.9455 19.6058C23.9455 19.5511 23.9455 19.4964 23.9455 19.4418C23.9455 15.8344 26.8279 12.9375 30.4173 12.9375C33.3541 12.9375 42.9803 19.1685 45.9714 20.9175L57.0116 27.0939C58.48 27.9138 60.3835 28.7882 61.4713 29.9907C63.8098 32.505 63.8098 36.4403 61.5256 38.8999ZM8.71763 28.351C9.26148 29.0069 9.69655 29.2255 10.5667 29.7174C11.4369 30.1547 12.4158 30.4826 13.4491 30.6466C14.7543 30.8107 14.9176 30.592 14.8631 31.2478V32.8329C14.8631 33.1608 14.7 33.1608 14.0474 33.1608C12.307 33.0516 10.7299 32.6143 9.42463 31.9037C8.01062 31.1385 6.9773 30.264 6.16152 29.1709C5.67205 28.4603 5.61767 28.2417 5.99837 28.0231C6.2703 27.859 6.81415 27.5311 7.14045 27.3671C7.90185 27.0392 8.065 27.4765 8.71763 28.351ZM16.6034 29.7174C12.7965 26.3833 13.3947 21.1361 16.821 17.966C16.9298 17.8568 16.8755 17.8568 16.9841 17.966C20.4104 21.1361 21.063 26.3833 17.2561 29.7174C16.8755 29.9907 16.9841 30.0453 16.6034 29.7174ZM16.6034 51.7992C10.7299 46.716 11.6544 38.572 16.9841 33.7075C17.1474 33.5981 17.0929 33.5435 17.2017 33.7075C22.4771 38.572 23.456 46.6614 17.6368 51.7445C17.0386 52.2365 17.1474 52.2364 16.6034 51.7992ZM29.1664 44.5297V48.465C29.1664 49.285 29.1664 49.8861 29.9278 50.4328C30.2542 50.6513 30.6348 50.8153 31.0155 50.8153C31.8314 50.8153 34.2786 49.1756 35.2575 48.5744C42.2189 44.4751 49.2889 40.4304 56.1959 36.2763C58.0993 35.1286 58.0993 33.8168 56.1959 32.6689C49.2889 28.515 42.2189 24.4703 35.2575 20.371C34.2786 19.7698 31.8314 18.13 31.0155 18.13C30.5804 18.13 30.2542 18.2939 29.9278 18.5126C29.1664 19.0592 29.1664 19.715 29.1664 20.4802V24.4157C29.1664 31.1385 29.1664 37.8068 29.1664 44.5297Z" fill="white"/>
<path fill-rule="evenodd" clip-rule="evenodd" d="M107.741 35.3892C107.046 34.5288 106.085 34.0984 104.91 34.0984C103.629 34.0984 102.614 34.5287 101.92 35.3415C101.226 36.1543 100.905 37.3017 100.905 38.736V47.1984H96.2062V25.9229H98.5556C99.1964 25.9229 99.7839 26.1141 100.211 26.5443C100.692 26.9747 100.905 27.4528 100.905 28.0265V32.9031C101.76 31.6601 102.934 30.895 104.43 30.5604C105.925 30.2257 107.42 30.3213 108.809 30.7994C110.09 31.2776 111.158 32.0903 112.066 33.1421C112.92 34.194 113.401 35.6762 113.401 37.5886V47.1984H108.755V38.6404C108.755 38.0189 108.702 37.4451 108.595 36.9192C108.435 36.4411 108.168 35.9152 107.741 35.3892ZM120.236 41.748H124.935C124.989 42.5608 125.309 43.1824 125.95 43.6126C126.644 44.043 127.552 44.2342 128.727 44.2342C129.581 44.2342 130.275 44.0907 130.863 43.8039C131.397 43.517 131.717 43.1346 131.717 42.6087C131.717 42.0827 131.236 41.6524 130.329 41.3178C128.246 40.5527 125.309 40.505 123.173 39.4053C121.571 38.5926 120.663 37.3496 120.663 35.6762C120.663 34.0984 121.304 32.8075 122.693 31.7557C124.081 30.7994 125.896 30.3213 128.086 30.3213C130.489 30.3213 132.411 30.7994 133.8 31.7557C135.135 32.8075 135.829 34.1462 135.936 35.7718H132.945C132.091 35.7718 131.397 35.4371 130.916 34.7199C130.756 34.5287 130.542 34.3853 130.382 34.2418C129.848 33.8593 129.047 33.6681 128.086 33.6681C127.178 33.6681 126.484 33.8116 126.003 34.0506C125.095 34.5765 125.202 35.5327 126.164 36.0108C128.887 37.3496 132.411 36.8236 135.188 38.9272C136.042 39.6922 136.523 40.6485 136.523 41.8915C136.523 43.7083 135.775 45.0948 134.334 46.0988C132.945 47.0073 130.863 47.4375 128.139 47.4375C125.523 47.4375 123.547 46.9594 122.265 46.0032C120.93 45.0469 120.236 43.6605 120.236 41.8436V41.748ZM114.415 30.7038H116.925C117.566 30.7038 118.1 30.895 118.581 31.3254C119.061 31.7557 119.275 32.2338 119.275 32.8075V47.1506H114.415V30.7038ZM114.415 25.875H116.925C117.566 25.875 118.1 26.0662 118.581 26.4966C119.061 26.9268 119.275 27.4049 119.275 27.9786V29.2695H114.415V25.875ZM95.2983 47.1984C93.8031 47.294 92.1477 47.2463 90.3321 47.1506C88.5699 47.0073 87.6621 46.0032 87.6621 44.1386V26.0185H90.1718C90.7593 26.0185 91.2933 26.2097 91.7739 26.6399C92.2545 27.0703 92.4682 27.5484 92.4682 28.1221V30.1779H95.2983V31.6122C95.2983 32.2338 95.0847 32.7119 94.6041 33.1421C94.1235 33.5247 93.5895 33.7158 92.9487 33.7158H92.4682V42.9433C92.4682 43.6605 92.9487 43.9951 93.8565 43.9951H95.2983V47.1984Z" fill="black"/>
<path d="M201.432 54.4739V50.8991H202.797C203.727 50.8991 204.492 50.6978 205.038 50.2948C205.584 49.892 205.693 49.1872 205.366 48.2809L198.811 31.0108H203.946L208.151 42.7927L211.374 32.5716C211.647 31.5142 212.412 31.0108 213.613 31.0108H217L209.79 50.7481C209.244 52.2081 208.533 53.2152 207.659 53.8194C206.84 54.3733 205.42 54.625 203.509 54.625C203.345 54.625 203.181 54.625 203.017 54.625C202.852 54.625 202.688 54.625 202.524 54.625C202.361 54.5747 202.197 54.5242 201.978 54.5242C201.76 54.5242 201.541 54.4739 201.432 54.4739ZM142.767 28.0905V33.3269C143.259 32.5213 144.024 31.8163 145.006 31.3128C145.88 30.8597 146.865 30.6583 148.121 30.6583C150.36 30.6583 152.163 31.5142 153.583 33.2261C155.003 34.938 155.713 37.1032 155.713 39.8221C155.713 52.6109 137.96 51.1005 137.96 40.8793V25.875H140.364C141.019 25.875 141.62 26.0764 142.057 26.5295C142.494 26.9827 142.767 27.4862 142.767 28.0905ZM150.797 39.5702C150.797 38.0094 150.414 36.801 149.759 35.9451C149.049 35.0388 148.066 34.5855 146.865 34.5855C145.553 34.5855 144.515 35.0388 143.805 35.8947C143.095 36.801 142.767 38.0598 142.767 39.6207C142.767 41.4332 143.095 42.7927 143.75 43.5982C144.46 44.5046 145.443 44.9578 146.701 44.9578C148.011 44.9578 149.049 44.5046 149.759 43.5982C150.469 42.6416 150.797 41.2821 150.797 39.5702ZM171.663 43.0445H174.011C173.52 44.857 172.482 46.2668 171.062 47.2235C169.588 48.2306 167.784 48.734 165.545 48.734C162.868 48.734 160.738 47.9284 159.264 46.3173C157.733 44.7564 157.023 42.4906 157.023 39.6207C157.023 36.8513 157.735 34.6863 159.209 33.1255C160.738 31.5142 162.813 30.7086 165.491 30.7086C168.33 30.7086 170.516 31.5142 172.045 33.0752C173.192 34.3338 173.902 35.9451 174.175 37.9087C174.23 38.1101 174.393 40.6276 174.23 40.9298H161.994C162.049 42.2892 162.377 43.2962 163.032 43.9507C164.399 45.5115 167.347 45.2095 168.822 43.8501C169.26 43.3968 169.806 43.0445 171.663 43.0445ZM161.994 37.9591H169.206C169.096 36.801 168.767 35.8947 168.221 35.3408C167.62 34.7366 166.747 34.4346 165.6 34.4346C164.562 34.4346 163.743 34.7366 163.032 35.3408C162.377 35.9451 162.049 36.801 161.994 37.9591ZM175.815 48.3815V39.9731C175.815 34.0821 179.474 31.0611 185.7 31.0611C185.81 31.0611 185.919 31.0611 186.03 31.0611C186.193 31.0611 186.303 31.0611 186.412 31.0611V35.6933H184.772C181.987 35.6933 180.731 36.9521 180.731 39.4696V48.3815H175.815ZM186.903 48.3815V39.9731C186.903 34.0821 190.562 31.0611 196.789 31.0611C196.898 31.0611 197.007 31.0611 197.117 31.0611C197.282 31.0611 197.391 31.0611 197.5 31.0611V35.6933H195.861C193.076 35.6933 191.82 36.9521 191.82 39.4696V48.3815H186.903Z" fill="black"/>
</svg>
