<svg width="240" height="48" viewBox="0 0 240 48" fill="none" xmlns="http://www.w3.org/2000/svg">
<g clip-path="url(#clip0)">
<path d="M56.1407 18.0652C60.0077 18.0652 62.9544 18.6833 64.9801 19.9199C67.0057 21.1565 68.0187 23.4189 68.0187 26.7075C68.0187 28.4437 67.7358 29.8908 67.1703 31.0484C66.6046 32.206 65.7695 33.0939 64.6645 33.712C63.5594 34.3303 62.3293 34.7578 60.9747 34.9946C59.6198 35.2313 58.0085 35.3497 56.1407 35.3497H51.2077V46.6756H47.1826V18.0652H56.1407ZM51.2077 21.4589V31.8378H56.4563C57.4032 31.8378 58.1991 31.8112 58.8436 31.7588C59.4882 31.706 60.1593 31.5812 60.8563 31.3839C61.5534 31.1866 62.106 30.9104 62.5137 30.5551C62.9215 30.1999 63.2567 29.6999 63.52 29.0554C63.7833 28.411 63.9146 27.628 63.9146 26.7075C63.9146 25.8128 63.7833 25.0369 63.52 24.379C63.2567 23.7214 62.9215 23.2084 62.5137 22.8399C62.106 22.4717 61.5601 22.1823 60.876 21.9719C60.1921 21.7615 59.5211 21.6232 58.8634 21.5577C58.2058 21.4917 57.4032 21.4589 56.4563 21.4589H51.2077ZM81.9093 29.1936C80.9095 29.0882 80.2387 29.0358 79.8968 29.0358C78.2129 29.0358 76.9634 29.5488 76.1478 30.5749C75.3324 31.601 74.9244 33.2582 74.9244 35.5469V46.6756H71.3336V25.4446H74.8455V29.1542C75.9505 26.6811 77.9501 25.4051 80.844 25.3262C81.2912 25.3262 81.6463 25.3393 81.9093 25.3657V29.1936ZM100.891 27.9309C102.917 29.825 103.93 32.5611 103.93 36.1389C103.93 39.7169 102.917 42.453 100.891 44.3472C98.8651 46.2413 96.4844 47.1885 93.7482 47.1885C91.0124 47.1885 88.6312 46.2413 86.6056 44.3472C84.5798 42.453 83.5671 39.7169 83.5671 36.1389C83.5671 32.5611 84.5798 29.825 86.6056 27.9309C88.6312 26.0363 91.0124 25.0894 93.7482 25.0894C96.4844 25.0894 98.8651 26.0363 100.891 27.9309ZM93.7482 44.0316C95.5108 44.0316 97.0105 43.3541 98.2467 41.9992C99.4835 40.6442 100.102 38.6907 100.102 36.1389C100.102 33.5083 99.4899 31.535 98.2666 30.2198C97.0432 28.9041 95.5372 28.2464 93.7482 28.2464C91.9329 28.2464 90.4202 28.8842 89.21 30.1605C88 31.4365 87.3947 33.4294 87.3947 36.1389C87.3947 38.7697 88.0062 40.743 89.2297 42.0582C90.4531 43.374 91.9593 44.0316 93.7482 44.0316ZM111.822 46.6756H108.231V25.4446H111.822V28.641C113.269 26.2734 115.4 25.0894 118.215 25.0894C121.267 25.0894 123.306 26.3392 124.332 28.8386C125.963 26.3392 128.344 25.0894 131.474 25.0894C136.052 25.0894 138.341 27.8125 138.341 33.2582V46.6756H134.749V34.3238C134.749 32.4033 134.44 30.9037 133.823 29.825C133.205 28.7463 132 28.207 130.211 28.207C128.633 28.207 127.384 28.8054 126.463 30.0026C125.542 31.1995 125.081 32.9163 125.081 35.1524V46.6756H121.49V34.3238C121.49 32.4033 121.181 30.9037 120.563 29.825C119.945 28.7463 118.741 28.207 116.952 28.207C115.374 28.207 114.124 28.8054 113.203 30.0026C112.283 31.1995 111.822 32.9163 111.822 35.1524V46.6756ZM146.114 37.2441C146.194 39.4013 146.877 41.0721 148.167 42.2555C149.457 43.4395 150.956 44.0316 152.666 44.0316C155.508 44.0316 157.441 42.8607 158.467 40.5194H162.176C161.65 42.4661 160.551 44.0645 158.881 45.314C157.21 46.5637 155.138 47.1885 152.666 47.1885C149.404 47.1885 146.852 46.1495 145.01 44.071C143.168 41.9927 142.248 39.3355 142.248 36.0996C142.248 32.811 143.228 30.1538 145.188 28.128C147.148 26.1024 149.601 25.0894 152.548 25.0894C155.73 25.0894 158.236 26.2603 160.065 28.6016C161.894 30.9431 162.689 33.824 162.452 37.2441H146.114ZM146.154 34.1657H158.663C158.612 32.5611 158.033 31.1601 156.927 29.9632C155.823 28.7658 154.362 28.1675 152.548 28.1675C150.81 28.1675 149.351 28.6608 148.167 29.6475C146.983 30.634 146.313 32.14 146.154 34.1657ZM167.662 20.1172H171.252V25.4446H175.278V28.3253H171.252V40.9139C171.252 42.0717 171.377 42.8213 171.627 43.1633C171.878 43.5055 172.489 43.6761 173.462 43.6761H175.278V46.6756H172.673C170.622 46.6756 169.273 46.3334 168.628 45.6496C167.984 44.9657 167.662 43.5317 167.662 41.3483V28.3253H164.307V25.4446H167.662V20.1172ZM181.67 37.2441C181.75 39.4013 182.434 41.0721 183.723 42.2555C185.013 43.4395 186.512 44.0316 188.222 44.0316C191.063 44.0316 192.997 42.8607 194.023 40.5194H197.732C197.205 42.4661 196.107 44.0645 194.437 45.314C192.767 46.5637 190.695 47.1885 188.222 47.1885C184.96 47.1885 182.408 46.1495 180.566 44.071C178.725 41.9927 177.803 39.3355 177.803 36.0996C177.803 32.811 178.784 30.1538 180.744 28.128C182.704 26.1024 185.157 25.0894 188.103 25.0894C191.286 25.0894 193.792 26.2603 195.621 28.6016C197.45 30.9431 198.245 33.824 198.008 37.2441H181.67ZM181.71 34.1657H194.219C194.167 32.5611 193.589 31.1601 192.483 29.9632C191.378 28.7658 189.918 28.1675 188.103 28.1675C186.366 28.1675 184.907 28.6608 183.723 29.6475C182.539 30.634 181.869 32.14 181.71 34.1657ZM215.332 43.6368C213.885 46.0046 211.663 47.1885 208.663 47.1885C204.138 47.1885 201.876 44.4656 201.876 39.0198V25.4446H205.466V37.9542C205.466 38.8751 205.519 39.6643 205.624 40.3222C205.73 40.9797 205.927 41.6111 206.216 42.2161C206.506 42.8213 206.96 43.2817 207.578 43.5972C208.196 43.9132 208.978 44.071 209.925 44.071C211.636 44.071 212.965 43.4724 213.911 42.2754C214.858 41.0783 215.332 39.3617 215.332 37.1257V25.4446H218.924V46.6756H215.332V43.6368ZM236.76 31.6405C236.26 29.2986 234.59 28.128 231.748 28.128C230.564 28.128 229.526 28.3517 228.631 28.7989C227.737 29.246 227.289 29.917 227.289 30.8116C227.289 32.311 228.369 33.2714 230.526 33.6922L233.524 34.2843C234.577 34.4947 235.504 34.7447 236.307 35.034C237.11 35.3233 237.865 35.705 238.576 36.1785C239.286 36.6519 239.832 37.2569 240.214 37.9937C240.595 38.7302 240.785 39.5985 240.785 40.5984C240.785 42.624 239.969 44.2289 238.339 45.4128C236.708 46.5968 234.643 47.1885 232.144 47.1885C229.513 47.1885 227.388 46.4585 225.771 44.9984C224.153 43.5382 223.238 41.8084 223.028 39.8092H226.816C227.395 42.7029 229.196 44.1499 232.222 44.1499C233.617 44.1499 234.787 43.8606 235.734 43.2817C236.681 42.7029 237.155 41.9399 237.155 40.993C237.155 39.2566 235.721 38.0857 232.854 37.4807L229.697 36.8492C225.671 36.0335 223.659 34.0739 223.659 30.9695C223.659 29.1542 224.468 27.7136 226.086 26.6482C227.704 25.5828 229.723 25.05 232.144 25.05C234.406 25.05 236.28 25.6419 237.766 26.8258C239.253 28.0098 240.168 29.6143 240.51 31.6405H236.76Z" fill="#252729"/>
<path fill-rule="evenodd" clip-rule="evenodd" d="M12.379 46.6756H16.813C12.8489 40.2901 8.88576 33.9034 4.92721 27.5157C4.33033 26.5507 4.15601 25.6545 4.60367 24.5124C4.81625 23.9702 5.26843 23.4549 5.70605 23.0687C5.57667 22.8937 5.4528 22.7147 5.33492 22.5314C4.69955 21.5452 4.23444 20.4508 3.96159 19.2866C-0.0878299 21.2497 -0.999391 25.1741 1.33308 29.0805L12.379 46.6756ZM10.6907 32.6558C13.275 32.9519 15.6738 32.9392 18.2602 32.6594C21.3846 32.3216 24.2047 31.563 25.9501 30.4161C27.7624 29.2259 28.9815 27.3325 28.9815 25.1222C28.9837 22.5649 27.409 20.5732 25.2657 19.4318C25.0785 20.3819 24.7635 21.2774 24.3285 22.1034C24.0973 22.5426 23.8333 22.96 23.5371 23.3531C24.0298 23.856 24.4659 24.4971 24.4659 25.1227C24.4659 26.1385 23.2996 27.2587 22.4486 27.7436C21.4657 28.301 20.0122 28.6561 18.8888 28.7754C17.4284 28.9338 15.9436 28.9995 14.4755 29.0277C13.6958 29.0277 12.8761 28.9842 12.0966 28.9394C10.7907 28.8648 9.36569 28.7898 8.10118 28.4423L10.6907 32.6558Z" fill="#252729"/>
<path fill-rule="evenodd" clip-rule="evenodd" d="M14.6053 0C18.5889 6.49961 17.1914 10.3898 16.6519 12.8228C15.8141 16.6017 20.5964 17.8582 20.9474 13.4536C21.0293 12.4263 20.9693 11.2311 20.9087 10.106C25.825 17.9883 22.613 25.1067 14.6053 25.107C7.88308 25.1072 4.10243 18.9627 6.7625 12.8431C6.47363 16.0814 8.75158 17.1219 8.37735 15.6437C8.28217 15.2672 8.07318 14.6203 7.94166 13.3106C7.30916 7.02236 15.0467 5.4161 14.6053 0Z" fill="#EA7437"/>
</g>
<defs>
<clipPath id="clip0">
<rect width="240" height="48" fill="white"/>
</clipPath>
</defs>
</svg>
